<svg width="1920" height="650" viewBox="0 0 1920 650" fill="none" xmlns="http://www.w3.org/2000/svg">
<path d="M1097.2 67.3C1115.5 44.9 1133.7 22.4 1152 0C1152 0 1898.1 5.3 1920 5.5V0H0V241.5C0 241.5 142 274.4 205.4 290.2C275.3 307.6 274.9 357.1 297.8 406.1C307.9 427.8 313.7 452.2 293.5 470.3C264.3 496.5 233 520.1 205.4 547.8C179.7 573.6 138.7 553.5 138.7 553.5L80.5 540.6L0 522.1V650H1920V163.5L1621.5 437.3C1621.5 437.3 1507.5 540 1463.5 582.9C1450.1 595.9 1435.8 607.2 1416.1 607C1399.8 606.8 1383.2 599.8 1368.1 596C1348.6 591.1 1329 586.2 1309.5 581.3C1281.2 574.2 1252.9 567.1 1224.5 560C1195.5 472.2 1072 475.7 1072 475.7C1072 475.7 1023 321.1 1000 251.3C986.3 209.9 995.9 187.5 1024.3 157.4C1050.9 129.3 1072.8 97.3 1097.2 67.3Z" fill="#181818" fill-opacity="0.96"/>
</svg>
