<svg width="33" height="33" viewBox="0 0 33 33" fill="none" xmlns="http://www.w3.org/2000/svg">
<path d="M9.99338 13.8851C9.92991 13.3365 9.43371 12.9432 8.88508 13.0066C8.33646 13.0701 7.94316 13.5663 8.00663 14.1149L9.99338 13.8851ZM9.85594 21.3989L8.86256 21.5138L8.86258 21.5139L9.85594 21.3989ZM11.7188 23L11.7184 24H11.7188V23ZM21.2812 23L21.2814 22H21.2812V23ZM23.145 21.3989L24.1384 21.5139L24.1384 21.5137L23.145 21.3989ZM24.9934 14.1148C25.0568 13.5662 24.6634 13.07 24.1148 13.0066C23.5662 12.9432 23.07 13.3366 23.0066 13.8852L24.9934 14.1148ZM7 12.5C6.44772 12.5 6 12.9477 6 13.5C6 14.0523 6.44772 14.5 7 14.5V12.5ZM26 14.5C26.5523 14.5 27 14.0523 27 13.5C27 12.9477 26.5523 12.5 26 12.5V14.5ZM9.10557 13.5528C8.85858 14.0468 9.05881 14.6474 9.55279 14.8944C10.0468 15.1414 10.6474 14.9412 10.8944 14.4472L9.10557 13.5528ZM12.8944 10.4472C13.1414 9.95324 12.9412 9.35256 12.4472 9.10557C11.9532 8.85858 11.3526 9.05881 11.1056 9.55279L12.8944 10.4472ZM22.1056 14.4472C22.3526 14.9412 22.9532 15.1414 23.4472 14.8944C23.9412 14.6474 24.1414 14.0468 23.8944 13.5528L22.1056 14.4472ZM21.8944 9.55279C21.6474 9.05881 21.0468 8.85858 20.5528 9.10557C20.0588 9.35256 19.8586 9.95324 20.1056 10.4472L21.8944 9.55279ZM12.5 19C12.5 19.5523 12.9477 20 13.5 20C14.0523 20 14.5 19.5523 14.5 19H12.5ZM14.5 17C14.5 16.4477 14.0523 16 13.5 16C12.9477 16 12.5 16.4477 12.5 17H14.5ZM15.5 19C15.5 19.5523 15.9477 20 16.5 20C17.0523 20 17.5 19.5523 17.5 19H15.5ZM17.5 17C17.5 16.4477 17.0523 16 16.5 16C15.9477 16 15.5 16.4477 15.5 17H17.5ZM18.5 19C18.5 19.5523 18.9477 20 19.5 20C20.0523 20 20.5 19.5523 20.5 19H18.5ZM20.5 17C20.5 16.4477 20.0523 16 19.5 16C18.9477 16 18.5 16.4477 18.5 17H20.5ZM8.00663 14.1149L8.86256 21.5138L10.8493 21.284L9.99338 13.8851L8.00663 14.1149ZM8.86258 21.5139C9.03016 22.961 10.288 23.9995 11.7184 24L11.7191 22C11.2393 21.9998 10.8928 21.6594 10.8493 21.2839L8.86258 21.5139ZM11.7188 24H21.2812V22H11.7188V24ZM21.2811 24C22.712 24.0002 23.9707 22.9615 24.1384 21.5139L22.1516 21.2839C22.1081 21.6595 21.7614 22.0001 21.2814 22L21.2811 24ZM24.1384 21.5137L24.9934 14.1148L23.0066 13.8852L22.1516 21.2841L24.1384 21.5137ZM7 14.5H26V12.5H7V14.5ZM10.8944 14.4472L12.8944 10.4472L11.1056 9.55279L9.10557 13.5528L10.8944 14.4472ZM23.8944 13.5528L21.8944 9.55279L20.1056 10.4472L22.1056 14.4472L23.8944 13.5528ZM14.5 19V17H12.5V19H14.5ZM17.5 19V17H15.5V19H17.5ZM20.5 19V17H18.5V19H20.5Z" fill="white"/>
<circle cx="16.5" cy="16.5" r="15.5" stroke="white" stroke-width="2"/>
</svg>
