<svg width="564" height="85" viewBox="0 0 564 85" fill="none" xmlns="http://www.w3.org/2000/svg">
<path d="M0.44 0.959996H12.68V34.92H27.08V0.959996H39.32V84H27.08V46.44H12.68V84H0.44V0.959996ZM69.1091 18.96C72.4691 18.96 75.4691 19.8 78.1091 21.48C80.8291 23.08 82.9491 25.4 84.4691 28.44C86.0691 31.4 86.8691 34.88 86.8691 38.88V84H78.1091L76.4291 79.44H75.9491C73.2291 83.12 69.6291 84.96 65.1491 84.96C60.8291 84.96 57.2291 83.28 54.3491 79.92C51.5491 76.48 50.1491 72 50.1491 66.48V65.04C50.1491 59.2 51.9091 54.48 55.4291 50.88C58.9491 47.2 63.4291 45.36 68.8691 45.36H74.6291V39.24C74.6291 36.36 74.1091 34.2 73.0691 32.76C72.1091 31.24 70.7891 30.48 69.1091 30.48C67.4291 30.48 66.0691 31.24 65.0291 32.76C64.0691 34.2 63.5891 36.36 63.5891 39.24V40.56H51.3491V38.88C51.3491 34.88 52.1091 31.4 53.6291 28.44C55.2291 25.4 57.3891 23.08 60.1091 21.48C62.8291 19.8 65.8291 18.96 69.1091 18.96ZM68.0291 73.44C69.7891 73.44 71.2691 72.72 72.4691 71.28C73.6691 69.76 74.3891 67.8 74.6291 65.4V56.88H68.8691C66.8691 56.88 65.2691 57.6 64.0691 59.04C62.9491 60.4 62.3891 62.4 62.3891 65.04V65.4C62.3891 67.96 62.8691 69.96 63.8291 71.4C64.8691 72.76 66.2691 73.44 68.0291 73.44ZM97.6831 19.92H109.923V72.48H118.683V19.92H130.923V72.48H139.683V19.92H151.923V84H97.6831V19.92ZM202.152 19.92V84H189.912V49.08L175.992 84H164.832V19.92H177.072V55.08L190.992 19.92H202.152ZM246.958 56.64H245.158V84H232.918V19.92H245.158V45.12H247.198L256.078 19.92H269.398L256.198 50.64L271.198 84H257.398L246.958 56.64ZM312.838 84H300.598V31.44H292.558C291.438 50.32 290.438 62.56 289.558 68.16C288.678 73.6 286.878 77.6 284.158 80.16C281.438 82.72 277.398 84 272.038 84V72.48C274.038 72.48 275.518 72 276.478 71.04C277.438 70.08 278.118 68.44 278.518 66.12C279.158 62.76 279.838 56.24 280.558 46.56C281.358 36.88 281.798 28 281.878 19.92H312.838V84ZM363.167 19.92V84H350.927V49.08L337.007 84H325.847V19.92H338.087V55.08L352.007 19.92H363.167ZM374.561 38.88C374.561 32.96 376.281 28.16 379.721 24.48C383.241 20.8 387.681 18.96 393.041 18.96C398.401 18.96 402.801 20.8 406.241 24.48C409.761 28.16 411.521 32.96 411.521 38.88V56.4H386.801V64.68C386.801 67.56 387.361 69.76 388.481 71.28C389.601 72.72 391.081 73.44 392.921 73.44C394.761 73.44 396.241 72.72 397.361 71.28C398.481 69.76 399.041 67.56 399.041 64.68V62.76H411.281V65.04C411.281 68.96 410.481 72.44 408.881 75.48C407.281 78.52 405.081 80.88 402.281 82.56C399.481 84.16 396.361 84.96 392.921 84.96C389.481 84.96 386.361 84.16 383.561 82.56C380.761 80.88 378.561 78.52 376.961 75.48C375.361 72.44 374.561 68.96 374.561 65.04V38.88ZM399.281 44.88V39.24C399.281 36.36 398.721 34.2 397.601 32.76C396.481 31.24 394.961 30.48 393.041 30.48C391.121 30.48 389.601 31.24 388.481 32.76C387.361 34.2 386.801 36.36 386.801 39.24V44.88H399.281ZM422.41 19.92H434.65V44.88H446.65V19.92H458.89V84H446.65V56.4H434.65V84H422.41V19.92ZM466.583 19.92H504.023V31.44H491.423V84H479.183V31.44H466.583V19.92ZM511.707 19.92H523.947V41.76H527.547C533.707 41.76 538.427 43.36 541.707 46.56C545.067 49.68 546.747 54.04 546.747 59.64V66.12C546.747 71.72 545.067 76.12 541.707 79.32C538.427 82.44 533.707 84 527.547 84H511.707V19.92ZM551.067 84V19.92H563.307V84H551.067ZM527.427 72.48C529.827 72.48 531.587 72 532.707 71.04C533.907 70.08 534.507 68.56 534.507 66.48V59.28C534.507 57.2 533.907 55.68 532.707 54.72C531.587 53.76 529.827 53.28 527.427 53.28H523.947V72.48H527.427Z" fill="white" fill-opacity="0.2"/>
</svg>
