<svg width="83" height="83" viewBox="0 0 83 83" fill="none" xmlns="http://www.w3.org/2000/svg">
<path d="M13 15C11.8973 15 11 15.8973 11 17C11 18.1027 11.8973 19 13 19C14.1027 19 15 18.1027 15 17C15 15.8973 14.1027 15 13 15ZM13 17.6667C12.632 17.6667 12.3333 17.3673 12.3333 17C12.3333 16.6327 12.632 16.3333 13 16.3333C13.368 16.3333 13.6667 16.6327 13.6667 17C13.6667 17.3673 13.368 17.6667 13 17.6667Z" fill="#02E602"/>
<path d="M71 19C72.1027 19 73 18.1027 73 17C73 15.8973 72.1027 15 71 15C69.8973 15 69 15.8973 69 17C69 18.1027 69.8973 19 71 19ZM71 16.3333C71.368 16.3333 71.6667 16.6327 71.6667 17C71.6667 17.3673 71.368 17.6667 71 17.6667C70.632 17.6667 70.3333 17.3673 70.3333 17C70.3333 16.6327 70.632 16.3333 71 16.3333Z" fill="#02E602"/>
<path d="M15 67C15 65.8973 14.1027 65 13 65C11.8973 65 11 65.8973 11 67C11 68.1027 11.8973 69 13 69C14.1027 69 15 68.1027 15 67ZM12.3333 67C12.3333 66.6327 12.632 66.3333 13 66.3333C13.368 66.3333 13.6667 66.6327 13.6667 67C13.6667 67.3673 13.368 67.6667 13 67.6667C12.632 67.6667 12.3333 67.3673 12.3333 67Z" fill="#02E602"/>
<path d="M71 65C69.8973 65 69 65.8973 69 67C69 68.1027 69.8973 69 71 69C72.1027 69 73 68.1027 73 67C73 65.8973 72.1027 65 71 65ZM71 67.6667C70.632 67.6667 70.3333 67.3673 70.3333 67C70.3333 66.6327 70.632 66.3333 71 66.3333C71.368 66.3333 71.6667 66.6327 71.6667 67C71.6667 67.3673 71.368 67.6667 71 67.6667Z" fill="#02E602"/>
<path d="M55.3496 33.7358L69.7031 20.8709C70.1965 21.0544 70.727 21.1598 71.2835 21.1598C71.2965 21.1598 71.3089 21.1578 71.3213 21.1578L79.2807 31.3847C79.8008 31.9534 80.4889 32.2547 81.1404 32.2547C81.5401 32.2547 81.9261 32.1409 82.2509 31.9053C82.6213 31.6365 83.7181 30.5615 82.2782 28.0191L79.6759 23.464C78.9703 22.0519 78.2315 20.6626 77.617 20.0731L75.5946 18.0512C75.7462 17.5983 75.8322 17.1155 75.8322 16.6118C75.8322 14.1046 73.7915 12.0645 71.2835 12.0645C71.0576 12.0645 70.837 12.0866 70.6202 12.1185L62.6438 1.87083C61.8035 0.953301 60.5264 0.729449 59.673 1.3496C59.3026 1.61835 58.2058 2.69335 59.6457 5.23576L62.2461 9.78697C62.9179 11.1327 63.6899 12.5897 64.3069 13.1818L66.8273 15.7015C66.7668 15.9962 66.7355 16.3014 66.7355 16.6131C66.7355 16.6704 66.742 16.7257 66.744 16.7817L55.291 23.7204C54.3023 20.2429 51.4376 17.5469 47.8581 16.8175V16.6209C47.8581 16.578 47.8536 16.5357 47.8451 16.4934C47.5535 15.0358 46.2204 14.018 44.6035 14.018H39.3961C37.7793 14.018 36.4462 15.0358 36.1546 16.4934C36.1461 16.5357 36.1415 16.578 36.1415 16.6209V16.8175C32.5667 17.5463 29.7046 20.2377 28.7126 23.723L17.8675 17.1519C17.8871 16.9801 17.9001 16.8064 17.9001 16.6287C17.9001 16.1316 17.8168 15.654 17.6684 15.2056L19.6836 13.1909C20.3105 12.5897 21.0818 11.1327 21.7509 9.79022L24.3559 5.23315C25.7945 2.69335 24.6977 1.61835 24.3273 1.3496C23.4733 0.728148 22.1962 0.953301 21.3233 1.91053L13.4081 12.0847C13.3892 12.0847 13.371 12.0821 13.3515 12.0821C10.8434 12.0821 8.80346 14.1221 8.80346 16.6294C8.80346 16.9483 8.83731 17.2587 8.8998 17.5593L6.3931 20.0653C5.76886 20.6639 5.03006 22.0539 4.32577 23.466L1.72078 28.023C0.282238 30.5628 1.37904 31.6378 1.74942 31.9066C2.07097 32.1402 2.45306 32.2541 2.85013 32.2541C3.50821 32.2541 4.20925 31.9424 4.75342 31.3457L12.7051 21.1253C12.9166 21.1552 13.1308 21.1761 13.3508 21.1761C13.7388 21.1761 14.1143 21.122 14.4743 21.0303L28.6501 33.7358L29.342 49.6429L14.4743 62.9686C14.1143 62.8768 13.7394 62.8228 13.3508 62.8228C13.1308 62.8228 12.916 62.8436 12.7044 62.8742L4.72023 52.6141C3.87988 51.696 2.60343 51.4734 1.74942 52.0929C1.37904 52.3617 0.282238 53.4367 1.72208 55.9791L4.32381 60.5329C5.02941 61.945 5.76821 63.3349 6.38333 63.9251L8.8998 66.4409C8.83731 66.7408 8.80346 67.0519 8.80346 67.3708C8.80346 69.878 10.8441 71.9181 13.3515 71.9181C13.3703 71.9181 13.3886 71.9155 13.4081 71.9155L21.3571 82.1293C21.8772 82.6981 22.5653 83 23.2168 83C23.6165 83 24.0025 82.8861 24.3273 82.6506C24.6977 82.3811 25.7945 81.3068 24.3546 78.7644L21.7542 74.2132C21.0825 72.8675 20.3105 71.4105 19.6934 70.8183L17.6684 68.7939C17.8168 68.3456 17.9001 67.8679 17.9001 67.3708C17.9001 67.1937 17.8871 67.02 17.8675 66.8476L30.3548 59.2809C31.436 61.3808 33.6212 62.8228 36.1415 62.8228H47.8581C50.3811 62.8228 52.5689 61.3769 53.6487 59.2828L66.1178 66.8378C66.0976 67.0128 66.084 67.1892 66.084 67.3695C66.084 67.8712 66.1686 68.3527 66.3196 68.8043L64.316 70.8073C63.6892 71.4085 62.9179 72.8655 62.2487 74.208L59.6437 78.765C58.2052 81.3048 59.302 82.3799 59.6724 82.6486C59.9939 82.8822 60.376 82.9961 60.7731 82.9961C61.4312 82.9961 62.1322 82.6844 62.6764 82.0877L70.5916 71.9142C70.6053 71.9142 70.6183 71.9161 70.6319 71.9161C73.1406 71.9161 75.1806 69.8761 75.1806 67.3688C75.1806 66.8703 75.0973 66.3914 74.9482 65.9424L76.9491 63.9421C77.5734 63.3434 78.3122 61.9534 79.0165 60.5413L81.6215 55.9843C83.06 53.4445 81.9632 52.3695 81.5928 52.1007C80.7388 51.4793 79.4617 51.7044 78.5888 52.6616L70.6821 62.8247C70.6651 62.8247 70.6489 62.8221 70.6326 62.8221C70.2492 62.8221 69.8782 62.8749 69.5221 62.9647L54.6583 49.6436L55.3496 33.7358ZM76.7057 21.0036C77.2538 21.5294 78.167 23.3579 78.5107 24.0464C78.5159 24.0575 78.5374 24.1004 78.5439 24.1108L81.1463 28.664C81.8213 29.8561 81.8037 30.6227 81.4854 30.8537C81.214 31.0502 80.6503 30.9559 80.2734 30.5472L72.7722 20.9053C73.6626 20.5956 74.4262 20.0184 74.9684 19.2681L76.7057 21.0036ZM74.5303 16.6131C74.5303 18.4026 73.0742 19.859 71.2835 19.859C69.4935 19.859 68.0374 18.4033 68.0374 16.6131C68.0374 14.823 69.4928 13.3673 71.2829 13.3673C73.0736 13.3673 74.5303 14.823 74.5303 16.6131ZM65.2176 12.2519C64.6688 11.7255 63.755 9.89499 63.4113 9.20586C63.4054 9.1948 63.3859 9.15576 63.3794 9.14535L60.777 4.59219C60.102 3.40005 60.1202 2.63349 60.4379 2.40248C60.7054 2.20596 61.271 2.29901 61.6492 2.70897L69.291 12.5311C68.4689 12.9339 67.7855 13.5749 67.3331 14.3668L65.2176 12.2519ZM67.0063 18.1443C67.3012 18.9649 67.8239 19.6755 68.4995 20.2013L55.4284 31.9164L55.6692 26.3819C55.6692 25.9368 55.6288 25.5021 55.5709 25.0726L67.0063 18.1443ZM39.3961 15.3195H44.6035C45.4113 15.3195 46.3057 15.7346 46.5433 16.6535C46.3317 16.6392 46.1208 16.6209 45.9054 16.6209H38.0943C37.8788 16.6209 37.6679 16.6392 37.4564 16.6535C37.694 15.7346 38.5884 15.3195 39.3961 15.3195ZM22.3166 2.74867C22.728 2.29966 23.293 2.20661 23.5618 2.40248C23.8795 2.63284 23.8983 3.40005 23.224 4.58958L20.6203 9.1447C20.6138 9.15511 20.5943 9.19415 20.5884 9.20521C20.2447 9.89434 19.3302 11.7255 18.7723 12.261L17.0461 13.9868C16.5065 13.2345 15.7442 12.6547 14.8551 12.3424L22.3166 2.74867ZM3.75946 30.5069C3.34743 30.9559 2.78243 31.0489 2.51425 30.8531C2.1966 30.6227 2.17772 29.8555 2.85208 28.666L5.45577 24.1108C5.46228 24.1004 5.48376 24.0575 5.48896 24.0464C5.83265 23.3579 6.74655 21.5294 7.30373 20.9945L9.41012 18.8887C9.86511 19.6787 10.5499 20.3177 11.3733 20.7173L3.75946 30.5069ZM10.1047 16.6287C10.1047 14.8392 11.5608 13.3829 13.3508 13.3829C15.1415 13.3829 16.5976 14.8386 16.5976 16.6287C16.5976 18.4189 15.1415 19.8746 13.3508 19.8746C11.5608 19.8746 10.1047 18.4189 10.1047 16.6287ZM15.7898 20.4609C16.5442 19.9794 17.1476 19.2844 17.5121 18.4586L28.432 25.0752C28.3721 25.5132 28.3305 25.9563 28.3311 26.4105L28.5707 31.9164L15.7898 20.4609ZM7.29397 62.9952C6.74589 62.4688 5.83265 60.6396 5.48831 59.9511C5.48311 59.9401 5.46228 59.8984 5.45577 59.888L2.85338 55.3348C2.17837 54.1427 2.1966 53.3761 2.51425 53.1451C2.78178 52.9499 3.34743 53.0423 3.72562 53.4523L11.3726 63.2816C10.5492 63.6818 9.86446 64.3201 9.40947 65.1101L7.29397 62.9952ZM10.1047 67.3701C10.1047 65.5806 11.5608 64.1243 13.3508 64.1243C15.1415 64.1243 16.5976 65.5799 16.5976 67.3701C16.5976 69.1603 15.1415 70.6159 13.3508 70.6159C11.5608 70.6159 10.1047 69.1596 10.1047 67.3701ZM18.7821 71.7469C19.3308 72.2734 20.2447 74.1039 20.5884 74.793C20.5943 74.804 20.6138 74.8431 20.6203 74.8535L23.2227 79.4067C23.8977 80.5988 23.8795 81.3654 23.5618 81.5964C23.293 81.7909 22.7286 81.6992 22.3505 81.2899L14.8557 71.6565C15.7449 71.3435 16.5071 70.7643 17.0467 70.0121L18.7821 71.7469ZM17.5121 65.5402C17.1476 64.7145 16.5442 64.0195 15.7898 63.5379L29.4149 51.3257L29.6323 56.3155C29.6323 56.9168 29.7208 57.4972 29.8745 58.0503L17.5121 65.5402ZM36.935 61.5213L37.4232 59.0765C37.6354 58.2306 38.4647 57.617 39.3961 57.617H44.6035C45.535 57.617 46.3643 58.2306 46.5693 59.046L47.064 61.5213H36.935ZM48.386 61.4947L47.838 58.7603C47.4845 57.3437 46.1234 56.3155 44.6035 56.3155H39.3961C37.8762 56.3155 36.5152 57.3436 36.1546 58.7909L35.6136 61.4947C32.9898 61.2292 30.9342 59.0063 30.9342 56.2875L29.9383 33.3994C29.9383 33.3987 29.9383 33.3974 29.9383 33.3968L29.6323 26.3819C29.6323 25.8535 29.687 25.3375 29.7807 24.8358C29.7807 24.8351 29.7807 24.8351 29.7807 24.8345C30.5111 20.9073 33.9577 17.9224 38.0943 17.9224H45.9054C50.0426 17.9224 53.4899 20.9086 54.2196 24.8169C54.2209 24.8293 54.2229 24.8403 54.2248 24.8527C54.314 25.3407 54.3674 25.8411 54.3674 26.3539L53.0655 56.3155C53.0655 59.0076 51.0105 61.2292 48.386 61.4947ZM61.6831 81.2502C61.271 81.6992 60.7054 81.7916 60.4379 81.5964C60.1202 81.366 60.1013 80.5988 60.7757 79.4093L63.3794 74.8541C63.3859 74.8437 63.4054 74.8047 63.4113 74.7936C63.755 74.1045 64.6695 72.2734 65.2273 71.7378L66.9445 70.0212C67.4867 70.7728 68.2502 71.3506 69.1413 71.661L61.6831 81.2502ZM70.6319 70.6159C68.8419 70.6159 67.3858 69.1603 67.3858 67.3701C67.3858 65.5799 68.8419 64.1243 70.6319 64.1243C72.4226 64.1243 73.8787 65.5799 73.8787 67.3701C73.8787 69.1603 72.4226 70.6159 70.6319 70.6159ZM79.5821 53.5011C79.9935 53.0514 80.5585 52.959 80.8273 53.1549C81.145 53.3853 81.1639 54.1525 80.4895 55.342L77.8858 59.8971C77.8793 59.9075 77.8578 59.9505 77.8526 59.9615C77.5089 60.65 76.595 62.4786 76.0379 63.0135L74.3253 64.7255C73.7844 63.9726 73.0208 63.3935 72.1304 63.0811L79.5821 53.5011ZM68.2034 63.5321C67.447 64.0123 66.8416 64.7073 66.4752 65.5331L54.1285 58.0523C54.2795 57.5063 54.3667 56.9356 54.3667 56.3441L54.5848 51.3263L68.2034 63.5321Z" fill="#02E602"/>
<path d="M47.7857 22H36.2143C34.4419 22 33 23.4953 33 25.3333V30.6667C33 32.5047 34.4419 34 36.2143 34H47.7857C49.5581 34 51 32.5047 51 30.6667V25.3333C51 23.4953 49.5581 22 47.7857 22ZM49.7143 30.6667C49.7143 31.7693 48.849 32.6667 47.7857 32.6667H36.2143C35.151 32.6667 34.2857 31.7693 34.2857 30.6667V25.3333C34.2857 24.2307 35.151 23.3333 36.2143 23.3333H47.7857C48.849 23.3333 49.7143 24.2307 49.7143 25.3333V30.6667Z" fill="#02E602"/>
</svg>
