<svg width="636" height="105" viewBox="0 0 636 105" fill="none" xmlns="http://www.w3.org/2000/svg">
<path d="M12.76 32.52C12.76 35.08 13.4 37.12 14.68 38.64C15.96 40.08 17.8 40.8 20.2 40.8H24.88V0.959996H37.12V84H24.88V52.32H19.84C16 52.32 12.6 51.48 9.64 49.8C6.76 48.04 4.52 45.68 2.92 42.72C1.32 39.76 0.52 36.48 0.52 32.88V0.959996H12.76V32.52ZM45.7703 19.92H83.2103V31.44H70.6103V84H58.3703V31.44H45.7703V19.92ZM88.9825 38.88C88.9825 34.96 89.7825 31.52 91.3825 28.56C93.0625 25.52 95.3025 23.16 98.1025 21.48C100.983 19.8 104.223 18.96 107.823 18.96C111.423 18.96 114.623 19.8 117.423 21.48C120.303 23.16 122.543 25.52 124.143 28.56C125.823 31.52 126.663 34.96 126.663 38.88V65.04C126.663 68.96 125.823 72.44 124.143 75.48C122.543 78.44 120.303 80.76 117.423 82.44C114.623 84.12 111.423 84.96 107.823 84.96C104.223 84.96 100.983 84.12 98.1025 82.44C95.3025 80.76 93.0625 78.44 91.3825 75.48C89.7825 72.44 88.9825 68.96 88.9825 65.04V38.88ZM101.223 64.68C101.223 67.56 101.823 69.76 103.023 71.28C104.223 72.72 105.823 73.44 107.823 73.44C109.823 73.44 111.423 72.72 112.623 71.28C113.823 69.76 114.423 67.56 114.423 64.68V39.24C114.423 36.36 113.823 34.2 112.623 32.76C111.423 31.24 109.823 30.48 107.823 30.48C105.823 30.48 104.223 31.24 103.023 32.76C101.823 34.2 101.223 36.36 101.223 39.24V64.68ZM189.681 19.92L170.841 104.4H158.481L164.481 79.32L149.361 19.92H162.441L170.241 59.16L177.081 19.92H189.681ZM213.472 19.92H225.712V44.88H237.712V19.92H249.952V84H237.712V56.4H225.712V84H213.472V19.92ZM278.765 18.96C282.125 18.96 285.125 19.8 287.765 21.48C290.485 23.08 292.605 25.4 294.125 28.44C295.725 31.4 296.525 34.88 296.525 38.88V84H287.765L286.085 79.44H285.605C282.885 83.12 279.285 84.96 274.805 84.96C270.485 84.96 266.885 83.28 264.005 79.92C261.205 76.48 259.805 72 259.805 66.48V65.04C259.805 59.2 261.565 54.48 265.085 50.88C268.605 47.2 273.085 45.36 278.525 45.36H284.285V39.24C284.285 36.36 283.765 34.2 282.725 32.76C281.765 31.24 280.445 30.48 278.765 30.48C277.085 30.48 275.725 31.24 274.685 32.76C273.725 34.2 273.245 36.36 273.245 39.24V40.56H261.005V38.88C261.005 34.88 261.765 31.4 263.285 28.44C264.885 25.4 267.045 23.08 269.765 21.48C272.485 19.8 275.485 18.96 278.765 18.96ZM277.685 73.44C279.445 73.44 280.925 72.72 282.125 71.28C283.325 69.76 284.045 67.8 284.285 65.4V56.88H278.525C276.525 56.88 274.925 57.6 273.725 59.04C272.605 60.4 272.045 62.4 272.045 65.04V65.4C272.045 67.96 272.525 69.96 273.485 71.4C274.525 72.76 275.925 73.44 277.685 73.44ZM331.66 39.24C331.66 36.36 331.1 34.2 329.98 32.76C328.94 31.24 327.54 30.48 325.78 30.48C323.94 30.48 322.46 31.24 321.34 32.76C320.22 34.2 319.66 36.36 319.66 39.24V64.68C319.66 67.56 320.22 69.76 321.34 71.28C322.46 72.72 323.94 73.44 325.78 73.44C327.62 73.44 329.1 72.72 330.22 71.28C331.34 69.76 331.9 67.56 331.9 64.68V62.76H344.14V65.04C344.14 68.96 343.34 72.44 341.74 75.48C340.14 78.52 337.94 80.88 335.14 82.56C332.34 84.16 329.22 84.96 325.78 84.96C322.34 84.96 319.22 84.16 316.42 82.56C313.62 80.88 311.42 78.52 309.82 75.48C308.22 72.44 307.42 68.96 307.42 65.04V38.88C307.42 34.96 308.22 31.48 309.82 28.44C311.42 25.4 313.62 23.08 316.42 21.48C319.22 19.8 322.34 18.96 325.78 18.96C329.22 18.96 332.3 19.8 335.02 21.48C337.82 23.08 339.98 25.4 341.5 28.44C343.1 31.48 343.9 34.96 343.9 38.88V40.56H331.66V39.24ZM372.027 19.92H384.267V44.88H396.267V19.92H408.507V84H396.267V56.4H384.267V84H372.027V19.92ZM419.92 38.88C419.92 34.96 420.72 31.52 422.32 28.56C424 25.52 426.24 23.16 429.04 21.48C431.92 19.8 435.16 18.96 438.76 18.96C442.36 18.96 445.56 19.8 448.36 21.48C451.24 23.16 453.48 25.52 455.08 28.56C456.76 31.52 457.6 34.96 457.6 38.88V65.04C457.6 68.96 456.76 72.44 455.08 75.48C453.48 78.44 451.24 80.76 448.36 82.44C445.56 84.12 442.36 84.96 438.76 84.96C435.16 84.96 431.92 84.12 429.04 82.44C426.24 80.76 424 78.44 422.32 75.48C420.72 72.44 419.92 68.96 419.92 65.04V38.88ZM432.16 64.68C432.16 67.56 432.76 69.76 433.96 71.28C435.16 72.72 436.76 73.44 438.76 73.44C440.76 73.44 442.36 72.72 443.56 71.28C444.76 69.76 445.36 67.56 445.36 64.68V39.24C445.36 36.36 444.76 34.2 443.56 32.76C442.36 31.24 440.76 30.48 438.76 30.48C436.76 30.48 435.16 31.24 433.96 32.76C432.76 34.2 432.16 36.36 432.16 39.24V64.68ZM495.818 50.16C501.818 52.08 504.818 56.44 504.818 63.24V66.12C504.818 71.72 503.138 76.12 499.778 79.32C496.498 82.44 491.778 84 485.618 84H469.058V19.92H483.938C490.018 19.92 494.738 21.4 498.098 24.36C501.458 27.24 503.138 31.28 503.138 36.48V39.96C503.138 42.36 502.498 44.44 501.218 46.2C499.938 47.88 498.138 49.2 495.818 50.16ZM481.298 45.36H483.818C486.298 45.36 488.098 44.96 489.218 44.16C490.338 43.28 490.898 41.88 490.898 39.96V36.84C490.898 35 490.338 33.64 489.218 32.76C488.178 31.88 486.498 31.44 484.178 31.44H481.298V45.36ZM492.578 63C492.578 61.08 491.978 59.6 490.778 58.56C489.658 57.44 487.938 56.88 485.618 56.88H481.298V72.48H485.498C487.898 72.48 489.658 72 490.778 71.04C491.978 70.08 492.578 68.56 492.578 66.48V63ZM513.084 38.88C513.084 34.96 513.884 31.52 515.484 28.56C517.164 25.52 519.404 23.16 522.204 21.48C525.084 19.8 528.324 18.96 531.924 18.96C535.524 18.96 538.724 19.8 541.524 21.48C544.404 23.16 546.644 25.52 548.244 28.56C549.924 31.52 550.764 34.96 550.764 38.88V65.04C550.764 68.96 549.924 72.44 548.244 75.48C546.644 78.44 544.404 80.76 541.524 82.44C538.724 84.12 535.524 84.96 531.924 84.96C528.324 84.96 525.084 84.12 522.204 82.44C519.404 80.76 517.164 78.44 515.484 75.48C513.884 72.44 513.084 68.96 513.084 65.04V38.88ZM525.324 64.68C525.324 67.56 525.924 69.76 527.124 71.28C528.324 72.72 529.924 73.44 531.924 73.44C533.924 73.44 535.524 72.72 536.724 71.28C537.924 69.76 538.524 67.56 538.524 64.68V39.24C538.524 36.36 537.924 34.2 536.724 32.76C535.524 31.24 533.924 30.48 531.924 30.48C529.924 30.48 528.324 31.24 527.124 32.76C525.924 34.2 525.324 36.36 525.324 39.24V64.68ZM591.982 31.44H574.462V84H562.222V19.92H591.982V31.44ZM598.279 38.88C598.279 34.96 599.079 31.52 600.679 28.56C602.359 25.52 604.599 23.16 607.399 21.48C610.279 19.8 613.519 18.96 617.119 18.96C620.719 18.96 623.919 19.8 626.719 21.48C629.599 23.16 631.839 25.52 633.439 28.56C635.119 31.52 635.959 34.96 635.959 38.88V65.04C635.959 68.96 635.119 72.44 633.439 75.48C631.839 78.44 629.599 80.76 626.719 82.44C623.919 84.12 620.719 84.96 617.119 84.96C613.519 84.96 610.279 84.12 607.399 82.44C604.599 80.76 602.359 78.44 600.679 75.48C599.079 72.44 598.279 68.96 598.279 65.04V38.88ZM610.519 64.68C610.519 67.56 611.119 69.76 612.319 71.28C613.519 72.72 615.119 73.44 617.119 73.44C619.119 73.44 620.719 72.72 621.919 71.28C623.119 69.76 623.719 67.56 623.719 64.68V39.24C623.719 36.36 623.119 34.2 621.919 32.76C620.719 31.24 619.119 30.48 617.119 30.48C615.119 30.48 613.519 31.24 612.319 32.76C611.119 34.2 610.519 36.36 610.519 39.24V64.68Z" fill="white" fill-opacity="0.2"/>
</svg>
