<svg width="1293" height="184" viewBox="0 0 1293 184" fill="none" xmlns="http://www.w3.org/2000/svg">
<path d="M1234.52 143.859C1234.58 144.012 1234.61 144.179 1234.6 144.346C1234.61 144.483 1234.59 144.621 1234.55 144.75C1234.5 144.878 1234.43 144.995 1234.33 145.092C1234.11 145.275 1233.83 145.363 1233.55 145.336H1231.79V143.412H1233.55C1233.69 143.411 1233.82 143.424 1233.95 143.448C1234.07 143.47 1234.19 143.515 1234.29 143.585C1234.4 143.659 1234.48 143.76 1234.53 143.878L1234.52 143.862V143.859ZM1248 153H1158L1167.44 138.263H1238.54L1248 153H1248ZM1169.58 134.944H1236.41L1230.02 124.966H1175.96L1169.58 134.944ZM1228.22 122.125L1223.65 115H1182.33L1177.76 122.125H1228.22Z" fill="#2D7050"/>
<path d="M1228 82C1228 95.8101 1217.03 107 1203.5 107C1189.97 107 1179 95.8101 1179 82C1179 68.1899 1189.97 57 1203.5 57C1217.03 57 1228 68.1899 1228 82Z" fill="#FF6B00"/>
<path d="M1233.41 31.1775C1233.99 31.3789 1234.63 31.2085 1235.03 30.7436L1235.26 30.477H1237.11V36.6944H1234.89C1234.74 36.2431 1234.52 35.8208 1234.24 35.4454C1232.77 33.595 1230.48 32.8512 1228.04 32.8512C1225.75 32.8512 1223.75 33.5857 1223.75 35.2997C1223.8 35.9506 1224.21 36.5209 1224.8 36.7502C1225.6 37.0602 1226.44 37.2616 1227.28 37.3391C1229.23 37.6181 1231.13 37.835 1233.04 38.1605C1234.86 38.4642 1236 38.8268 1236.93 40.0976C1237.99 41.545 1238.28 43.4388 1237.71 45.1558C1237.3 46.6219 1236.36 47.8678 1235.09 48.6489C1234.05 49.2436 1232.92 49.6464 1231.75 49.8391C1229.87 50.1056 1227.96 50.0407 1226.1 49.6469L1222.98 48.9433C1222.79 48.9112 1222.6 48.9214 1222.42 48.9733C1222.24 49.0253 1222.07 49.1176 1221.92 49.244C1221.77 49.4069 1221.66 49.6062 1221.61 49.8236H1219.49V43.2776H1221.48C1222.84 46.0051 1225.84 47.2139 1228.83 47.3006C1230.52 47.3533 1232.27 47.2448 1233.17 45.8315C1233.33 45.5183 1233.4 45.1684 1233.37 44.8184C1233.35 44.4683 1233.24 44.131 1233.05 43.8417C1232.27 42.8499 1230.98 42.9026 1229.79 42.7786C1227.6 42.5492 1226.11 42.3137 1226.11 42.3137C1224.36 42.0037 1222.56 41.6938 1221.12 40.6028C1220.51 40.0764 1220.03 39.4029 1219.73 38.6412C1219.43 37.8794 1219.31 37.0525 1219.38 36.2326C1219.47 35.4003 1219.72 34.5939 1220.11 33.8599C1220.5 33.1258 1221.02 32.4786 1221.66 31.9554C1222.41 31.351 1223.25 30.8706 1224.15 30.5359C1225.63 29.9687 1227.5 29.9377 1229.15 30.0555C1230.61 30.2188 1232.04 30.5923 1233.4 31.1651L1233.41 31.1775ZM1213.9 34.1808C1213.97 34.0007 1213.99 33.8076 1213.96 33.6177C1213.94 33.4279 1213.87 33.2468 1213.76 33.0898C1213.66 32.9328 1213.52 32.8044 1213.35 32.7154C1213.19 32.6264 1213 32.5794 1212.82 32.5784H1211.68V30.4832H1219.71V32.5815H1219.42C1219.02 32.567 1218.63 32.647 1218.27 32.8153C1217.91 32.9836 1217.59 33.2355 1217.34 33.5516C1216.73 34.3699 1216.52 35.2997 1216.12 36.1458L1210.9 49.8143H1208.08L1203.56 36.7564L1198.49 49.8143H1195.96L1190.54 33.9917C1190.24 33.2045 1189.85 32.5784 1189 32.5784H1188.37V30.477H1197.94V32.5753C1197.34 32.5753 1196.67 32.4885 1196.25 32.9162C1195.56 33.6725 1195.95 34.6643 1196.25 35.5105L1198.59 42.2889L1203.01 30.4832H1206.69C1206.69 30.5762 1209.95 40.0852 1210.76 42.4655L1213.9 34.1808ZM1180.38 33.8709C1180.5 33.7767 1180.59 33.6465 1180.63 33.4986C1180.67 33.3507 1180.67 33.1925 1180.62 33.0464C1180.57 32.8999 1180.48 32.7735 1180.35 32.6855C1180.23 32.5975 1180.08 32.5524 1179.93 32.5567H1179.38V30.4801H1187.48V32.5784H1186.89C1185.77 32.5784 1184.75 33.843 1183.93 34.5713L1180.65 37.6274C1181.55 38.9291 1187.63 46.0981 1187.63 46.0981C1188.38 46.9039 1188.85 47.6943 1190.96 47.6943H1191.34V49.7926H1179.93V47.6943C1180.75 47.6943 1181.75 47.7717 1181.96 46.8822C1181.99 46.6525 1181.97 46.4179 1181.9 46.1983C1181.82 45.9786 1181.7 45.7805 1181.54 45.6208L1177.51 40.5687L1174.58 43.3117V46.3336C1174.58 46.5117 1174.61 46.6881 1174.67 46.8527C1174.74 47.0173 1174.84 47.1666 1174.96 47.2921C1175.08 47.4176 1175.23 47.5167 1175.39 47.5836C1175.55 47.6505 1175.72 47.6839 1175.89 47.6819H1176.9V49.7833H1167V47.6819C1168.3 47.6819 1169 47.093 1169.4 46.0888C1169.56 45.5619 1169.64 45.004 1169.63 44.4461V35.1385C1169.63 34.2707 1169.63 32.5505 1168.1 32.5505H1167.01V30.4739H1176.91V32.5722H1176.09C1174.69 32.5722 1174.58 34.3172 1174.58 34.9123V39.3878L1180.38 33.8554V33.8709Z" fill="white"/>
<g clip-path="url(#clip0_58_300)">
<path d="M505.333 57.3247H511.2C511.867 57.3247 512.4 56.7922 512.4 56.1266C512.4 55.461 511.867 54.9286 511.2 54.9286H505.333V57.3247ZM505.333 62.9156H511.333C512.133 62.9156 512.667 62.3831 512.667 61.5844C512.667 60.7857 512.133 60.2532 511.333 60.2532H505.333V62.9156ZM514.8 58.6558C515.6 59.4545 516.133 60.5195 516.133 61.7175C516.133 64.1136 514.267 65.9773 511.867 65.9773H502.133V52H511.733C514 52 515.867 53.8636 515.867 56.1266C515.733 57.0584 515.333 57.9903 514.8 58.6558ZM517.067 82.6169H513.467L512.4 80.2208H504.533L503.467 82.6169H499.867L506.8 68.6396H510L517.067 82.6169ZM508.4 72.2338L506 77.2922H510.8L508.4 72.2338ZM513.2 85.6786H517.2L510.133 94.7305V99.6558H506.8V94.7305L499.733 85.6786H503.733L508.533 92.0682L513.2 85.6786ZM531.733 85.6786V88.7403H522.4V91.1364H531.467V94.1981H522.4V96.8604H531.733V99.9221H519.067V85.6786H531.733ZM542 94.3312H539.467V99.6558H536.133V85.6786H544.667C547.067 85.6786 548.933 87.6753 548.933 90.0714C548.933 92.0682 547.6 93.6656 545.867 94.1981L550 99.6558H546L542 94.3312ZM544.4 88.6071H539.6V91.2695H544.4C545.2 91.2695 545.733 90.6039 545.733 89.9383C545.733 89.2727 545.067 88.6071 544.4 88.6071ZM501.2 99.6558H497.6L496.533 97.2597H488.667L487.6 99.6558H484L491.067 85.6786H494.267L501.2 99.6558ZM492.533 89.2727L490.133 94.3312H495.067L492.533 89.2727ZM471.333 91.0032H477.2C477.867 91.0032 478.4 90.4708 478.4 89.8052C478.4 89.1396 477.867 88.6071 477.2 88.6071H471.333V91.0032ZM471.333 96.5942H477.333C478.133 96.5942 478.667 96.0617 478.667 95.263C478.667 94.4643 478.133 93.9318 477.333 93.9318H471.333V96.5942ZM480.8 92.3344C481.6 93.1331 482.133 94.1981 482.133 95.3961C482.133 97.7922 480.267 99.6558 477.867 99.6558H468V85.6786H477.6C479.867 85.6786 481.733 87.5422 481.733 89.8052C481.733 90.737 481.333 91.6688 480.8 92.3344ZM514.8 102.584V105.646H505.467V108.042H514.533V111.104H505.467V113.766H514.8V116.828H502.133V102.584H514.8ZM512.4 124.282C512.4 123.484 511.867 122.951 511.067 122.951H505.333V125.614H511.067C511.867 125.614 512.4 125.081 512.4 124.282ZM502 134V120.023H511.333C513.733 120.023 515.6 122.019 515.6 124.416C515.6 126.279 514.533 127.743 512.933 128.409L517.2 134H513.2L509.2 128.675H505.333V134H502Z" fill="white"/>
<path d="M558.867 89.4334C557.27 63.0519 535.314 42 508.433 42C481.553 42 459.597 63.0519 458 89.4334C458 90.4993 458.133 91.5652 458.266 92.6311C459.331 101.425 462.657 109.553 467.714 116.348C476.896 128.872 491.667 137 508.433 137C485.013 137 465.851 118.746 464.254 95.8289C464.121 94.763 464.121 93.6971 464.121 92.6311C464.121 91.5652 464.121 90.4993 464.254 89.4334C465.851 66.5161 485.013 48.2623 508.433 48.2623C525.2 48.2623 539.971 56.3899 549.153 68.9144C554.209 75.7097 557.536 83.8373 558.601 92.6311C558.734 93.6971 558.867 94.763 558.867 95.6957C558.867 94.6297 559 93.5638 559 92.4979C559 91.5652 559 90.4993 558.867 89.4334Z" fill="#89D329"/>
<path d="M458.133 95.5666C459.73 121.948 481.686 143 508.567 143C535.447 143 557.403 121.948 559 95.5666C559 94.5007 558.867 93.4348 558.734 92.3689C557.669 83.575 554.343 75.4474 549.286 68.6522C540.104 56.1276 525.333 48 508.567 48C531.987 48 551.149 66.2539 552.746 89.1711C552.879 90.237 552.879 91.3029 552.879 92.3689C552.879 93.4348 552.879 94.5007 552.746 95.5666C551.149 118.617 531.987 136.738 508.567 136.738C491.8 136.738 477.029 128.61 467.847 116.086C462.791 109.29 459.464 101.163 458.399 92.3689C458.266 91.3029 458.133 90.237 458.133 89.3043C458.133 90.3703 458 91.4362 458 92.5021C458 93.4348 458 94.5007 458.133 95.5666Z" fill="#00BCFF"/>
</g>
<path d="M697 56C697 56.493 696.638 56.7395 696.277 57.1092C685.425 68.2007 674.574 79.2923 663.723 90.3838C663.603 90.507 663.362 90.6303 663 91C663 88.5352 663.362 86.4401 663.844 84.345C667.461 69.0634 680.121 57.8485 695.312 56.2464C695.553 56.2464 695.915 56.2465 696.156 56C696.397 56 696.759 56 697 56Z" fill="#0574CE"/>
<path d="M727.757 69.6837C726.427 69.6837 725.46 69.6837 724.492 69.6837C719.173 69.6837 713.853 69.6837 708.534 69.6837C707.566 69.6837 706.962 69.9269 706.236 70.6562C704.544 72.4794 702.73 74.1811 700.675 76.2474C701.401 76.2474 701.884 76.2474 702.368 76.2474C711.798 76.2474 721.107 76.2474 730.537 76.2474C731.746 76.2474 732.23 76.7336 732.714 77.706C733.56 79.7723 734.285 81.9603 734.89 84.1482C735.253 85.3637 735.132 85.7282 733.681 85.7282C723.042 85.7282 712.402 85.7282 701.763 85.7282C701.28 85.7282 700.796 85.7282 700.071 85.7282C702.368 88.0377 704.423 90.1041 706.478 92.1704C706.841 92.5351 707.446 92.4135 707.929 92.4135C716.755 92.4135 725.581 92.4135 734.527 92.4135C735.736 92.4135 736.099 92.6566 735.978 93.8721C735.857 96.1816 735.615 98.3694 735.132 100.679C735.011 101.651 734.527 101.773 733.681 101.773C727.878 101.773 722.195 101.773 716.392 101.773C716.392 102.381 716.876 102.624 717.238 102.988C720.745 106.635 724.372 110.16 727.878 113.685C728.603 114.414 728.603 114.9 727.999 115.751C726.548 117.453 724.976 119.033 723.404 120.613C722.558 121.342 722.195 121.464 721.349 120.613C715.909 115.022 710.347 109.43 704.786 103.839C699.95 98.9772 694.993 93.9937 690.157 89.0102C689.31 88.1593 688.827 88.1593 688.101 89.0102C687.134 90.2256 685.925 91.198 684.837 92.2919C684.354 92.7781 684.233 93.1427 684.837 93.6289C685.804 94.6013 686.772 95.5738 687.739 96.5462C696.927 105.784 706.116 115.022 715.304 124.26C716.15 125.11 716.271 125.475 715.062 125.961C712.644 127.055 710.226 127.906 707.687 128.514C706.72 128.757 706.237 128.514 705.511 127.906C696.564 118.911 687.618 109.917 678.671 100.8C677.704 99.7065 677.1 99.828 676.253 100.8C675.407 101.773 674.561 102.624 673.593 103.475C672.747 104.204 672.626 104.69 673.593 105.541C681.089 112.955 688.464 120.492 695.839 127.906C696.202 128.271 696.685 128.514 697.048 129C692.454 129 688.222 127.906 684.233 125.961C673.835 120.978 667.186 112.834 664.163 101.651C663.801 100.436 664.042 99.7065 664.889 98.8556C678.55 85.2421 692.091 71.6286 705.632 57.8935C706.478 57.0426 707.204 56.7994 708.413 57.1641C715.546 59.1089 721.591 62.7555 726.669 68.2252C726.91 68.7114 727.152 69.076 727.757 69.6837Z" fill="#0272CE"/>
<path d="M812.056 62C819.147 62.2409 825.277 64.409 828.762 71.0336C834.17 80.9103 829.964 96.5687 814.099 97.8936C808.33 98.3754 803.042 97.2913 798.715 93.1961C793.187 87.8964 791.865 81.3922 793.908 74.2858C795.951 67.2998 800.999 63.6863 807.85 62.3614C809.412 62.1205 810.734 62 812.056 62ZM818.787 80.1876C818.787 77.8991 818.306 76.2128 817.104 74.7675C813.739 70.9131 807.609 72.2381 805.927 77.056C804.845 80.4286 805.806 84.1624 808.33 86.0896C810.373 87.6554 812.657 87.7759 814.941 86.6919C817.705 85.3669 818.666 82.8375 818.787 80.1876Z" fill="white"/>
<path d="M852.446 85.744C852.446 89.4493 852.446 93.0308 852.446 96.736C852.446 97.8476 852.2 98.0946 851.092 97.9711C848.015 97.8476 844.938 97.9711 841.985 97.9711C841.246 97.9711 841 97.8477 841 96.9831C841 85.991 841 74.999 841 64.1304C841 63.5128 841 63.0188 841.862 63.0188C847.769 63.1423 853.554 62.7717 859.462 63.2657C860.692 63.3892 861.8 63.6362 862.908 64.0067C866.969 65.4888 869.554 68.206 870.046 72.5287C870.538 77.3455 869.062 81.1742 864.631 83.5209C864.508 83.6444 864.385 83.6443 864.262 83.7678C867.092 88.3376 870.046 93.0309 873 97.8476C868.446 97.8476 864.262 97.8476 859.954 97.8476C859.215 97.8476 859.092 97.2301 858.846 96.736C857 93.2778 855.154 89.9432 853.308 86.4851C853.185 86.1145 852.938 85.8675 852.815 85.4969C852.692 85.6205 852.569 85.744 852.446 85.744ZM852.323 74.8754C852.323 78.0866 852.446 78.0866 855.646 77.7161C856.138 77.5926 856.631 77.469 857 77.3455C857.862 76.975 858.477 76.3575 858.477 75.3695C858.6 73.5169 857.862 72.5288 855.892 72.2818C852.446 71.7878 852.323 71.9112 852.323 74.8754Z" fill="white"/>
<path d="M1026.88 97.7873C1022.98 97.7873 1019.08 97.7873 1015.18 97.7873C1014.57 97.7873 1014.33 97.6644 1014.2 97.0498C1013.84 95.8205 1013.35 94.7143 1012.98 93.608C1012.74 92.8705 1012.38 92.7475 1011.77 92.7475C1008.72 92.7475 1005.67 92.7475 1002.75 92.7475C1002.14 92.7475 1001.77 92.8703 1001.65 93.485C1001.65 93.6079 1001.65 93.7309 1001.53 93.7309C1001.04 95.0831 1001.04 96.804 1000.07 97.5415C999.091 98.402 997.384 97.7873 995.922 97.7873C993.241 97.7873 990.681 97.7873 988 97.7873C988.122 96.4351 988.731 95.3289 989.219 94.2226C993.119 84.1429 997.019 74.1861 1000.92 64.1063C1001.28 63.2459 1001.65 63 1002.5 63C1005.92 63 1009.33 63 1012.74 63C1013.35 63 1013.84 63.1229 1014.08 63.7375C1018.35 74.9236 1022.73 86.1097 1027 97.2957C1026.88 97.4186 1026.76 97.4185 1026.88 97.7873ZM1007.26 75.2924C1006.28 78.2425 1005.43 80.8238 1004.45 83.6511C1006.04 83.6511 1007.5 83.6511 1008.96 83.6511C1009.94 83.6511 1009.94 83.4053 1009.57 82.6678C1008.84 80.3322 1008.11 77.9967 1007.26 75.2924Z" fill="white"/>
<path d="M949.246 63C953.304 63 957.485 63 961.544 63C962.527 63 962.527 63.6007 962.773 64.2014C964.495 70.5689 966.217 76.8162 967.939 83.1837C967.939 83.424 968.061 83.5442 968.184 84.1449C969.045 80.7809 969.906 77.7773 970.644 74.7738C971.628 71.1695 972.489 67.5654 973.473 64.0813C973.595 63.6007 973.472 63 974.333 63C978.515 63 982.696 63 987 63C985.647 66.6042 984.417 70.2085 983.065 73.6926C980.359 81.0213 977.531 88.4699 974.825 95.7986C974.456 96.7597 974.087 97 973.104 97C969.537 96.8799 965.971 97 962.282 97C961.667 97 961.298 96.8799 960.929 96.1591C956.993 85.2262 953.058 74.2933 949 63.2402C949.123 63.2402 949.123 63.2403 949.246 63Z" fill="white"/>
<path d="M917.163 80.0601C917.163 74.7738 917.163 69.6078 917.163 64.3215C917.163 63.3604 917.41 63 918.399 63C925.566 63 932.856 63 940.023 63C940.888 63 941.258 63.12 941.258 64.0812C941.135 66.6041 941.135 69.1272 941.258 71.53C941.258 72.371 940.888 72.4911 940.147 72.4911C936.563 72.4911 932.98 72.4911 929.52 72.4911C928.161 72.4911 928.284 73.212 928.284 74.053C928.284 74.894 928.16 75.4946 929.396 75.4946C932.609 75.3745 935.945 75.4946 939.158 75.4946C940.146 75.4946 940.394 75.7349 940.394 76.696C940.27 78.9787 940.394 81.2615 940.394 83.4241C940.394 84.2651 940.146 84.5052 939.281 84.5052C936.069 84.5052 932.856 84.6254 929.643 84.5052C928.037 84.3851 928.16 85.2261 928.16 86.1873C928.16 87.1484 928.284 87.7492 929.52 87.629C933.227 87.5089 937.057 87.6289 940.764 87.5088C941.753 87.5088 942 87.7491 942 88.7102C941.876 91.113 942 93.6361 942 96.039C942 96.8799 941.753 97 940.888 97C933.227 97 925.689 97 918.028 97C917.04 97 916.916 96.5194 917.04 95.7986C917.163 90.6325 917.163 85.3463 917.163 80.0601Z" fill="white"/>
<path d="M780.087 84.5872C782.378 87.2332 784.548 89.8793 786.719 92.405C787.322 93.1267 786.839 93.2469 786.357 93.6078C783.584 96.0132 780.328 97.4565 776.711 97.8174C770.199 98.539 764.291 97.2159 759.709 92.1644C754.765 86.7521 753.921 80.3775 756.212 73.6422C758.383 67.1474 763.326 63.5393 770.079 62.3365C775.746 61.3744 781.051 62.4567 785.875 65.8244C786.839 66.4257 787.08 66.9069 786.116 67.8691C784.186 70.034 782.378 72.3193 780.569 74.4842C780.087 75.0856 779.846 75.2058 779.122 74.6044C776.952 72.5598 773.576 72.0786 770.923 73.5219C768.27 74.8449 766.944 77.8518 767.426 81.2195C767.788 84.1061 769.838 86.3913 772.611 86.9927C775.746 87.7143 778.158 86.7522 780.087 84.5872Z" fill="white"/>
<path d="M893.5 63.1232C897.924 63.1232 902.225 63.1232 906.648 63.1232C907.631 63.1232 908 63.2464 908 64.3556C907.877 66.8204 907.877 69.4084 908 71.8732C908 72.8591 907.631 73.1056 906.771 73.1056C904.805 72.9824 902.839 73.1056 900.873 73.1056C899.767 73.1056 899.398 73.3521 899.398 74.4612C899.521 81.8556 899.398 89.25 899.398 96.6444C899.398 97.7536 899.153 98 898.047 98C895.097 97.8768 892.025 97.8768 889.076 98C887.97 98 887.602 97.7536 887.602 96.6444C887.725 89.25 887.602 81.8556 887.602 74.4612C887.602 73.3521 887.356 72.9824 886.25 73.1056C884.161 73.2288 882.072 73.1056 880.106 73.1056C879.246 73.1056 879 72.8591 879 71.9964C879 69.4084 879.123 66.8203 879 64.109C879 63.1231 879.369 63 880.229 63C884.653 63.1232 889.076 63.1232 893.5 63.1232Z" fill="white"/>
<path d="M783.148 111.576C783.394 110.453 784.505 109.954 785.616 110.328C786.11 110.453 785.986 110.828 785.986 111.202C785.986 115.072 785.986 118.942 785.863 122.937C785.739 125.309 784.382 126.807 782.284 127.556C779.568 128.555 775.989 127.806 774.508 125.933C774.261 125.559 773.52 125.059 774.261 124.81C775.001 124.435 775.619 123.062 776.606 124.185C777.223 124.81 777.964 125.184 778.704 125.434C781.666 126.058 783.518 124.435 783.271 121.189C781.79 122.438 780.185 123.187 778.457 122.812C776.606 122.562 775.248 121.689 774.137 120.191C772.286 117.569 772.78 113.948 775.001 111.701C777.223 109.454 780.185 109.454 783.148 111.576ZM783.271 116.445C783.271 114.198 781.543 112.575 779.321 112.7C777.223 112.7 775.619 114.448 775.619 116.57C775.619 118.692 777.346 120.44 779.568 120.315C781.666 120.191 783.271 118.443 783.271 116.445Z" fill="white"/>
<path d="M767.214 111.681C766.969 109.943 768.196 110.439 769.054 110.315C770.404 110.191 769.913 111.309 769.913 111.93C769.913 115.034 769.913 118.139 769.913 121.243C769.913 121.864 770.281 122.733 769.054 122.609C768.196 122.485 766.969 123.106 767.214 121.119C765.742 122.609 764.147 123.106 762.43 122.982C760.835 122.858 759.486 122.112 758.504 120.871C756.419 118.387 756.541 114.413 758.627 112.054C761.08 109.446 764.147 109.322 767.214 111.681ZM763.411 120.374C765.619 120.374 767.214 118.759 767.214 116.524C767.214 114.289 765.619 112.55 763.411 112.55C761.326 112.55 759.731 114.289 759.608 116.4C759.731 118.635 761.326 120.25 763.411 120.374Z" fill="white"/>
<path d="M840.017 116.713C841.154 119.443 844.061 120.311 846.335 118.698C846.588 118.45 846.841 117.829 847.473 118.202C848.104 118.574 848.736 118.698 849.115 119.194C849.495 119.691 848.863 120.063 848.484 120.311C846.462 122.173 842.923 122.545 840.269 121.18C837.868 119.939 836.605 117.209 837.11 114.355C837.742 111.004 840.649 108.771 844.061 109.019C847.473 109.267 849.874 111.997 850 115.348C850 116.216 849.874 116.713 848.736 116.713C845.83 116.713 842.923 116.713 840.017 116.713ZM843.555 114.479C844.44 114.479 845.324 114.479 846.083 114.479C847.094 114.479 847.22 114.107 846.714 113.362C845.956 112.121 844.945 111.625 843.429 111.625C842.039 111.625 840.901 112.245 840.269 113.486C839.764 114.231 840.017 114.479 840.901 114.479C841.786 114.479 842.671 114.479 843.555 114.479Z" fill="white"/>
<path d="M882.963 116.75C883.973 119.461 887.002 120.323 889.273 118.721C890.03 118.228 891.545 118.352 892.05 119.091C892.428 119.584 891.923 119.83 891.671 120.076C889.778 121.925 887.506 122.294 884.982 121.801C882.584 121.309 881.07 119.83 880.313 117.612C879.303 114.409 880.817 110.96 883.72 109.604C886.749 108.249 890.283 109.235 891.924 111.945C892.176 112.438 892.428 112.931 892.555 113.424C893.438 116.257 893.186 116.627 890.157 116.627C887.759 116.75 885.361 116.75 882.963 116.75ZM886.371 114.532C887.254 114.532 888.137 114.532 888.895 114.532C889.778 114.532 890.03 114.286 889.652 113.547C888.895 112.192 887.759 111.576 886.118 111.699C884.604 111.822 883.594 112.561 882.963 113.793C882.711 114.286 882.837 114.532 883.468 114.532C884.477 114.532 885.361 114.532 886.371 114.532Z" fill="white"/>
<path d="M854.83 111.459C856.031 110.2 857.473 109.822 859.035 110.074C861.198 110.325 862.76 111.836 862.88 114.103C863 116.747 863 119.391 863 122.161C863 123.42 862.039 122.79 861.558 122.916C861.078 123.042 860.357 123.168 860.357 122.161C860.357 120.02 860.357 117.88 860.357 115.614C860.357 113.725 859.516 112.718 857.954 112.718C856.151 112.592 854.95 113.725 854.83 115.488C854.71 117.502 854.71 119.642 854.83 121.657C854.83 122.79 854.349 122.916 853.508 122.916C852.667 122.916 852.066 122.916 852.066 121.657C852.186 118.383 852.066 114.984 852.066 111.71C852.066 111.207 851.706 110.325 852.667 110.451C853.508 110.451 854.83 109.57 854.83 111.459Z" fill="white"/>
<path d="M873.299 123C869.57 123 866.96 121.135 866.214 118.399C865.468 115.414 866.711 112.306 869.322 110.813C872.056 109.321 875.412 109.943 877.277 112.181C877.525 112.554 878.396 113.052 877.65 113.425C876.904 113.798 876.407 115.166 875.164 113.922C873.672 112.306 871.31 112.306 869.819 113.798C868.327 115.29 868.327 117.777 869.819 119.269C871.31 120.762 873.672 120.762 875.164 119.145C876.282 117.901 877.028 119.145 877.65 119.518C878.52 120.015 877.525 120.637 877.277 121.01C876.034 122.378 874.418 123 873.299 123Z" fill="white"/>
<path d="M816 115.478C816 112.617 817.608 110.379 820.206 109.384C822.68 108.513 825.648 109.135 827.257 111.125C827.504 111.498 828.494 111.996 827.504 112.493C826.885 112.866 826.267 114.11 825.154 112.991C823.546 111.374 821.319 111.374 819.835 112.866C818.474 114.359 818.474 116.846 819.835 118.214C821.319 119.706 823.669 119.706 825.154 118.089C826.267 116.846 827.009 118.089 827.628 118.463C828.494 118.96 827.628 119.582 827.257 119.955C825.525 121.945 822.68 122.567 820.082 121.447C817.484 120.577 816 118.214 816 115.478Z" fill="white"/>
<path d="M808.603 123C807.335 123 805.687 122.496 804.545 121.11C804.292 120.732 803.531 120.102 804.419 119.85C805.053 119.598 805.687 118.086 806.574 119.346C807.335 120.354 808.35 120.606 809.491 120.48C810.125 120.354 810.759 120.228 811.012 119.472C811.139 118.59 810.505 118.338 809.871 118.086C809.11 117.834 808.35 117.582 807.589 117.33C805.179 116.574 804.165 115.188 804.419 113.425C804.672 111.409 806.194 110.149 808.603 110.023C810.252 109.897 811.773 110.275 812.915 111.535C813.295 111.913 814.056 112.417 813.422 112.795C812.788 113.173 812.027 114.433 811.012 113.299C810.378 112.669 809.618 112.417 808.603 112.543C807.969 112.669 807.462 112.921 807.335 113.551C807.208 114.181 807.716 114.559 808.223 114.811C808.984 115.063 809.618 115.315 810.378 115.567C813.168 116.448 814.309 117.708 813.929 119.85C813.802 121.74 811.9 123 808.603 123Z" fill="white"/>
<path d="M791.959 111.826C792.853 110.766 793.62 110.294 794.514 110.177C795.025 110.059 795.791 109.706 795.791 110.53C795.791 111.237 796.558 112.415 795.153 112.768C792.342 113.593 791.959 113.946 791.959 116.773C791.959 118.187 791.831 119.6 791.959 121.014C792.087 122.192 791.32 121.956 790.554 121.956C789.915 121.956 789.021 122.309 789.021 121.014C789.149 117.833 789.021 114.653 789.021 111.59C789.021 110.884 788.765 110.059 790.043 110.294C791.193 110.294 792.47 109.823 791.959 111.826Z" fill="white"/>
<path d="M801.987 115.985C801.987 117.655 801.851 119.324 801.987 120.994C801.987 122.067 801.444 122.067 800.629 121.948C799.95 121.948 799 122.186 799 120.994C799.136 117.655 799.136 114.316 799 110.977C799 109.784 799.815 110.023 800.493 110.023C801.172 110.023 802.123 109.784 801.987 110.857C801.851 112.646 801.987 114.316 801.987 115.985Z" fill="white"/>
<path d="M834 116.059C834 117.741 833.864 119.304 834 120.986C834 122.068 833.455 122.068 832.636 121.947C831.955 121.827 831 122.308 831 121.106C831.136 117.742 831 114.257 831 110.892C831 109.69 831.955 110.051 832.5 110.051C833.182 110.051 834 109.81 834 110.892C833.864 112.574 834 114.257 834 116.059Z" fill="white"/>
<path d="M1029.11 65.4575C1029.11 66.0354 1029.11 66.7288 1029.11 67.3066C1029.11 67.6533 1029.23 68 1028.63 68C1027.91 68 1028.03 67.6533 1028.03 67.1911C1028.03 66.0354 1028.03 64.9952 1028.03 63.8395C1028.03 63.4928 1027.79 62.915 1028.63 63.0306C1029.11 63.0306 1029.84 62.7994 1030.08 63.6084C1030.32 64.3018 1030.56 64.9951 1030.92 65.8041C1031.52 65.2263 1031.64 64.5329 1031.76 63.955C1032 62.9149 1032.72 63.0305 1033.44 63.1461C1034.28 63.2617 1033.92 63.9551 1033.92 64.3018C1034.04 65.3419 1033.92 66.382 1033.92 67.3066C1033.92 67.8845 1033.8 68 1033.2 68C1032.6 68 1032.72 67.6533 1032.72 67.1911C1032.72 66.6132 1032.72 65.9197 1032.6 65.2263C1032.36 65.8041 1032.24 66.2664 1032 66.8443C1031.76 67.191 1031.88 67.8845 1031.16 67.8845C1030.32 67.8845 1030.44 67.3066 1030.32 66.8443C1030.08 66.2664 1029.84 65.8041 1029.72 65.2263C1029.23 65.4574 1029.11 65.4575 1029.11 65.4575Z" fill="white"/>
<path d="M799.444 108C798.563 107.893 797.902 107.357 798.012 106.393C798.122 105.536 798.673 105 799.554 105C800.546 105 801.096 105.643 800.986 106.607C800.876 107.464 800.325 108 799.444 108Z" fill="white"/>
<path d="M1024.11 63.0289C1024.34 63.0289 1024.7 63.0289 1024.93 63.0289C1025.28 63.1445 1025.87 62.6821 1025.98 63.4914C1026.1 64.3006 1025.52 64.0694 1025.05 64.0694C1024.46 64.0694 1024.58 64.5318 1024.58 64.8786C1024.58 65.6879 1024.58 66.4971 1024.58 67.3064C1024.58 67.7688 1024.46 68 1023.99 68C1023.52 68 1023.41 67.7688 1023.41 67.3064C1023.41 66.7283 1023.41 66.1503 1023.41 65.6878C1023.41 64.9942 1023.88 63.9538 1022.35 64.0694C1022 64.0694 1022 63.8382 1022 63.6069C1022 63.2601 1022 63.0289 1022.47 63.0289C1023.05 63.0289 1023.52 63.0289 1024.11 63.0289Z" fill="white"/>
<path d="M834 106.393C833.889 107.464 833.444 108 832.444 108C831.556 108 831 107.464 831 106.5C831 105.536 831.556 105 832.556 105C833.444 105 833.889 105.643 834 106.393Z" fill="white"/>
<g clip-path="url(#clip1_58_300)">
<path d="M364.819 91.6504C361.294 97.4076 356.414 100.697 349.364 99.8749C342.494 99.0525 337.704 94.3919 337.071 87.5382C336.439 80.8672 340.054 74.9273 346.11 72.9169C352.979 70.5409 360.3 72.9169 363.554 78.4913C364.006 79.2223 363.825 80.3189 364.91 80.6845C364.91 81.3241 364.91 81.8724 364.91 82.5121C361.475 82.0552 357.498 84.3398 354.515 80.9586C352.979 79.2223 351.262 78.7654 349.364 80.0448C347.104 81.5069 346.291 87.1727 347.827 90.1883C348.821 92.1987 350.539 92.9298 352.708 92.3815C352.979 92.2901 353.341 92.1987 353.521 92.016C356.323 87.0813 360.933 89.0003 365 89.0003C364.819 89.8228 364.819 90.7366 364.819 91.6504Z" fill="white"/>
<path d="M9.57419 105C5.6 101.284 3.43226 96.571 1.71613 91.5861C1.26452 90.3172 1.44516 88.5952 0 87.6888C0 83.429 0 79.2598 0 75C4.96774 75.8157 9.2129 78.9879 14.271 79.5317C14.3613 89.5921 19.1484 96.7523 28 101.284C27.3677 104.003 25.2 104.003 23.1226 104.003C18.6065 104.003 14 103.731 9.57419 105Z" fill="#288E54"/>
<path d="M28.5259 44C29.4272 44 30.3286 44 31.23 44C31.1398 49.0575 32.9426 54.023 31.3201 59.0805C25.9119 60.5517 21.4951 63.6782 17.8896 68C13.2025 66.8966 8.51536 65.977 5 62.2069C7.97453 55.8621 12.9321 51.5402 18.8812 48.4138C21.9458 46.7586 25.2809 45.4713 28.5259 44Z" fill="#288E54"/>
<path d="M32.0927 59.2165C33.7029 54.1134 31.9138 49.1031 32.0033 44C35.5815 44 39.1598 44 42.738 44C43.2748 45.4845 44.4377 44.8351 45.4217 45.0206C46.5847 45.6701 47.8371 46.2268 49 46.8763C47.6582 51.7938 47.9265 56.9897 47.1214 62C42.3802 59.5876 37.3707 58.3814 32.0927 59.2165Z" fill="#288E54"/>
<path d="M0 74.4398C2.13861 70.4817 2.13861 65.4869 5.25743 62C8.73267 65.8639 13.3663 66.8063 18 67.8429C15.9505 71.6126 14.5248 75.6649 14.0792 80C9.08911 79.5288 4.90099 76.2304 0 75.3822C0 75.0995 0 74.7225 0 74.4398Z" fill="#288E54"/>
<path d="M10 105.868C14.4824 104.589 19.1478 104.863 23.8132 104.772C25.9172 104.772 28.1126 104.772 28.753 102.031C42.932 105.229 53.7264 99.8377 57.477 87.6854C58.7577 83.6651 58.2088 79.5534 58.0259 75.5331C62.3253 73.3402 62.3253 68.9544 63.5146 65.2081C64.0634 63.2894 63.606 61.0051 66.0759 60C81.4442 83.1168 68.7288 106.782 52.2628 114.457C37.5348 121.401 20.0626 117.929 10 105.868Z" fill="#288E54"/>
<path d="M114.341 78.6151C119.426 82.3787 120.879 85.9587 119.517 91.0993C118.336 95.5973 114.432 98.5348 108.348 98.8102C102.173 99.0856 95.9988 98.8102 89.7334 98.9938C87.4634 99.0856 86.9186 98.1676 87.0094 96.0563C87.1002 85.6833 87.1002 75.3104 87.0094 64.8457C87.0094 63.0098 87.2818 62 89.461 62C95.8172 62.1836 102.173 61.8164 108.53 62.2754C115.431 62.8262 118.609 66.7734 118.064 72.5565C117.701 75.3104 115.885 76.8709 114.341 78.6151ZM102.9 90.3649C105.17 90.1814 108.984 91.0075 108.802 86.6931C108.62 82.4705 104.807 83.572 102.083 83.2967C99.2677 83.0213 97.8149 83.4802 97.7241 87.0603C97.6333 91.1911 100.176 90.2731 102.9 90.3649ZM101.992 76.3202C104.353 76.2284 107.349 76.5956 107.349 73.5663C107.349 69.8944 103.989 70.6288 101.538 70.3534C99.1769 70.1698 97.6333 70.4452 97.7241 73.5663C97.8149 77.4217 100.357 76.0448 101.992 76.3202Z" fill="white"/>
<path d="M185.454 74.1539C195.24 69.1455 201.702 73.0409 201.887 84.0779C201.887 88.2516 201.702 92.4253 201.979 96.599C202.163 99.3814 201.148 100.216 198.563 99.9379C197.363 99.8452 196.07 99.7524 194.87 99.9379C191.916 100.309 191.178 99.0104 191.362 96.228C191.639 92.518 191.455 88.8081 191.455 85.0982C191.455 82.7795 190.993 80.5535 188.131 80.5535C185.085 80.5535 184.346 82.594 184.346 85.1909C184.346 88.9009 184.161 92.6108 184.438 96.3207C184.623 99.2887 183.607 100.216 180.838 99.8452C179.453 99.6597 178.068 99.7524 176.684 99.8452C174.837 99.9379 173.914 99.3814 174.006 97.2482C174.099 90.0138 174.099 82.7795 174.006 75.5451C174.006 73.6901 174.376 72.4844 176.499 72.7626C178.992 73.1336 181.669 71.9279 183.977 73.5974C184.069 74.1539 184.161 74.7104 184.161 75.3596C184.531 74.9886 184.992 74.6176 185.454 74.1539Z" fill="white"/>
<path d="M294.309 87.6841C294.309 89.3187 294.491 91.135 294.309 92.8605C294.126 94.9492 295.952 98.1277 294.309 98.6725C291.571 99.5807 287.92 100.126 285.181 98.2185C283.721 97.2195 283.447 98.2185 282.717 98.4909C281.257 98.945 279.888 99.6715 278.427 99.8531C271.947 100.67 267.84 98.0368 267.11 92.9513C266.379 87.8657 269.3 84.778 275.872 83.5975C277.515 83.325 279.158 83.1434 280.8 82.9618C282.261 82.6893 283.904 82.6893 284.543 80.9639C284.816 80.1465 284.36 79.42 283.721 79.0568C282.169 78.0578 280.07 77.6946 279.066 78.966C276.784 81.7812 273.864 80.6914 271.217 80.9639C268.205 81.2363 267.84 79.9649 268.935 77.5129C269.665 75.9691 270.76 74.6977 272.221 73.8804C273.316 73.3355 274.411 72.7906 275.598 72.609C287.372 70.9744 296.682 71.61 294.309 87.6841ZM280.253 94.1319C282.9 93.7686 284.634 92.4064 284.725 89.5004C284.725 88.683 284.908 87.3208 283.539 87.7749C281.348 88.5922 277.971 87.7749 277.423 91.2258C277.058 93.1329 278.427 93.9502 280.253 94.1319Z" fill="white"/>
<path d="M154.133 99.9957C145.782 99.9051 139.909 94.1973 140.001 86.0432C140.001 77.8891 146.149 72 154.684 72C163.218 72 169.091 77.8891 168.999 86.2244C168.815 94.5597 162.851 100.177 154.133 99.9957ZM158.905 86.315C158.721 83.0533 158.629 79.6105 154.408 79.6105C150.462 79.6105 150.187 82.9627 150.279 85.862C150.279 88.8518 150.187 92.4759 154.408 92.5665C158.629 92.7477 158.629 89.1236 158.905 86.315Z" fill="white"/>
<path d="M235 85.8187C235 94.2729 229.2 99.9091 220.546 100C211.8 100 206 94.3638 206 86.0005C206 77.7281 212.076 71.9101 220.73 72.0011C229.108 72.0011 234.908 77.6372 235 85.8187ZM224.781 86.0005C224.689 82.8188 224.505 79.5462 220.546 79.4553C216.311 79.3644 216.127 82.9097 216.127 86.0005C216.127 89.0913 216.311 92.6366 220.546 92.5457C224.965 92.4548 224.597 88.7277 224.781 86.0005Z" fill="white"/>
<path d="M236 73.0248C236.554 72.8383 236.646 72.745 236.83 72.6518C246.519 71.9057 246.426 71.9057 248.918 81.2313C249.471 83.4695 249.379 85.8942 250.855 88.0391C251.962 83.7493 253.07 79.5527 254.177 75.4494C254.823 73.0248 262.942 70.8799 264.695 72.6518C265.341 73.3045 264.788 74.0506 264.603 74.7967C262.204 82.2572 259.805 89.8109 257.498 97.3647C256.945 99.1366 256.114 99.6961 254.269 99.7894C244.95 100.349 244.95 100.442 241.997 91.3963C239.968 85.2414 238.03 79.1797 236 73.0248Z" fill="white"/>
<path d="M301.531 71.7636C301.531 71.4892 301.62 71.1233 301.62 70.8489C301.8 64.72 304.048 62.982 309.983 64.5371C312.86 65.2689 311.421 67.5558 311.421 69.0194C311.511 71.3977 311.511 73.2272 314.658 72.7698C316.906 72.4039 316.996 74.0505 316.816 75.697C316.726 77.2521 317.446 79.4475 314.658 79.0816C311.601 78.7157 311.241 80.3622 311.421 82.832C311.601 84.936 311.511 87.1314 311.421 89.2353C311.421 90.7903 312.051 92.1625 313.579 92.071C318.435 91.888 316.726 95.547 316.636 97.7424C316.636 101.036 313.759 99.7549 312.141 99.7549C303.689 99.9378 301.441 97.651 301.441 89.1438C301.441 86.5825 301.441 83.9297 301.441 81.3685C301.441 80.2708 301.531 78.8986 300.002 79.0816C296.495 79.539 297.215 77.0691 297.035 75.0567C296.675 71.8551 299.193 72.9528 300.631 72.4039C301.531 72.6784 301.71 72.3125 301.531 71.7636Z" fill="white"/>
<path d="M322.194 86.2105C322.194 82.891 322.281 79.4793 322.106 76.1598C322.019 73.6702 322.806 72.8403 325.081 73.0247C326.394 73.117 327.706 73.117 329.019 73.0247C331.207 72.8403 332.082 73.6702 331.994 76.0676C331.819 83.0754 331.819 90.0832 331.994 97.1833C332.082 99.4885 331.207 100.134 329.194 99.9495C327.881 99.8573 326.569 99.8573 325.256 99.9495C322.894 100.226 321.844 99.3962 322.019 96.7222C322.281 93.2183 322.194 89.7144 322.194 86.2105Z" fill="white"/>
<path d="M65 59.6452C62.5578 60.5484 63.01 62.8968 62.4673 64.7935C61.2915 68.5871 61.2915 72.9226 57.0402 75C54.9598 69.5806 51.8844 65.0645 47 61.7226C47.8141 56.8452 47.5427 51.8774 48.8995 47C55.6834 49.3484 61.0201 53.5935 65 59.6452Z" fill="#288E54"/>
<path d="M125.089 86.3238C125.089 82.9111 125.178 79.5905 125.089 76.1778C125 73.8718 125.624 72.765 128.033 73.0417C129.461 73.2262 130.977 73.1339 132.494 73.0417C134.457 72.8572 135.081 73.6874 134.992 75.7166C134.903 82.9111 134.903 90.1055 134.992 97.3C134.992 99.237 134.457 100.159 132.494 99.9749C130.888 99.8827 129.193 99.8827 127.587 99.9749C125.624 100.159 125 99.3293 125 97.3923C125.178 93.7028 125.089 90.0133 125.089 86.3238Z" fill="white"/>
<path d="M35.8822 121C38.6357 127.084 41.0339 132.325 43.5209 137.473C44.6756 139.813 43.6098 140 41.7445 140C37.0369 139.906 32.4182 140 27 140C30.1088 133.635 32.7734 127.739 35.8822 121Z" fill="#AF0848"/>
<path d="M327.026 68.9314C324.94 68.845 322 69.9684 322 65.475C322 60.8089 325.224 62.1914 327.69 62.1914C330.06 62.105 332.905 61.0681 333 65.3886C333 69.7955 330.25 68.9314 327.026 68.9314Z" fill="white"/>
<path d="M130.263 68.9313C127.457 68.9313 124.915 69.7967 125.002 65.3835C125.09 60.7108 128.071 62.2684 130.263 62.1819C132.631 62.0088 134.998 61.4031 134.998 65.4701C135.086 69.9697 132.367 68.8448 130.263 68.9313Z" fill="white"/>
</g>
<defs>
<clipPath id="clip0_58_300">
<rect width="101" height="101" fill="white" transform="translate(458 42)"/>
</clipPath>
<clipPath id="clip1_58_300">
<rect width="365" height="96" fill="white" transform="translate(0 44)"/>
</clipPath>
</defs>
</svg>
