<svg width="536" height="50" viewBox="0 0 536 50" fill="none" xmlns="http://www.w3.org/2000/svg">
<line x1="331" y1="24" x2="533" y2="24" stroke="#8D8B8B" stroke-width="2"/>
<g clip-path="url(#clip0_138_4)">
<path fill-rule="evenodd" clip-rule="evenodd" d="M244.125 25C244.125 30.8016 246.43 36.3656 250.532 40.468C254.634 44.5703 260.198 46.875 266 46.875C271.802 46.875 277.366 44.5703 281.468 40.468C285.57 36.3656 287.875 30.8016 287.875 25C287.875 19.1984 285.57 13.6344 281.468 9.53204C277.366 5.42968 271.802 3.125 266 3.125C260.198 3.125 254.634 5.42968 250.532 9.53204C246.43 13.6344 244.125 19.1984 244.125 25ZM291 25C291 31.6304 288.366 37.9893 283.678 42.6777C278.989 47.3661 272.63 50 266 50C259.37 50 253.011 47.3661 248.322 42.6777C243.634 37.9893 241 31.6304 241 25C241 18.3696 243.634 12.0107 248.322 7.32233C253.011 2.63392 259.37 0 266 0C272.63 0 278.989 2.63392 283.678 7.32233C288.366 12.0107 291 18.3696 291 25ZM267.562 14.0625C267.562 13.6481 267.398 13.2507 267.105 12.9576C266.812 12.6646 266.414 12.5 266 12.5C265.586 12.5 265.188 12.6646 264.895 12.9576C264.602 13.2507 264.438 13.6481 264.438 14.0625V32.1656L257.731 25.4562C257.438 25.1629 257.04 24.998 256.625 24.998C256.21 24.998 255.812 25.1629 255.519 25.4562C255.225 25.7496 255.061 26.1476 255.061 26.5625C255.061 26.9774 255.225 27.3754 255.519 27.6688L264.894 37.0438C265.039 37.1893 265.211 37.3047 265.401 37.3835C265.591 37.4622 265.794 37.5028 266 37.5028C266.206 37.5028 266.409 37.4622 266.599 37.3835C266.789 37.3047 266.961 37.1893 267.106 37.0438L276.481 27.6688C276.775 27.3754 276.939 26.9774 276.939 26.5625C276.939 26.1476 276.775 25.7496 276.481 25.4562C276.188 25.1629 275.79 24.998 275.375 24.998C274.96 24.998 274.562 25.1629 274.269 25.4562L267.562 32.1656V14.0625Z" fill="#8D8B8B"/>
</g>
<line y1="26" x2="200" y2="26" stroke="#8D8B8B" stroke-width="2"/>
<defs>
<clipPath id="clip0_138_4">
<rect width="50" height="50" fill="white" transform="translate(241)"/>
</clipPath>
</defs>
</svg>
