<svg width="660" height="105" viewBox="0 0 660 105" fill="none" xmlns="http://www.w3.org/2000/svg">
<path d="M0.44 0.959996H32.6V12.48H12.68V84H0.44V0.959996ZM73.6756 72.48V95.04H61.4356V84H39.2356V95.04H26.9956V72.48H31.0756C32.0356 70.72 32.7156 68.6 33.1156 66.12C33.7556 62.76 34.4356 56.24 35.1556 46.56C35.9556 36.88 36.3956 28 36.4756 19.92H68.2756V72.48H73.6756ZM56.0356 72.48V31.44H47.1556C46.0356 50.32 45.0356 62.56 44.1556 68.16C43.9956 69.36 43.6756 70.8 43.1956 72.48H56.0356ZM80.0684 38.88C80.0684 32.96 81.7884 28.16 85.2284 24.48C88.7484 20.8 93.1884 18.96 98.5484 18.96C103.908 18.96 108.308 20.8 111.748 24.48C115.268 28.16 117.028 32.96 117.028 38.88V56.4H92.3084V64.68C92.3084 67.56 92.8684 69.76 93.9884 71.28C95.1084 72.72 96.5884 73.44 98.4284 73.44C100.268 73.44 101.748 72.72 102.868 71.28C103.988 69.76 104.548 67.56 104.548 64.68V62.76H116.788V65.04C116.788 68.96 115.988 72.44 114.388 75.48C112.788 78.52 110.588 80.88 107.788 82.56C104.988 84.16 101.868 84.96 98.4284 84.96C94.9884 84.96 91.8684 84.16 89.0684 82.56C86.2684 80.88 84.0684 78.52 82.4684 75.48C80.8684 72.44 80.0684 68.96 80.0684 65.04V38.88ZM104.788 44.88V39.24C104.788 36.36 104.228 34.2 103.108 32.76C101.988 31.24 100.468 30.48 98.5484 30.48C96.6284 30.48 95.1084 31.24 93.9884 32.76C92.8684 34.2 92.3084 36.36 92.3084 39.24V44.88H104.788ZM194.204 19.92V84H181.964V49.08L172.244 74.52H167.924L158.204 49.08V84H145.964V19.92H157.604L170.084 53.4L182.564 19.92H194.204ZM207.136 19.92H219.376V41.76H222.976C229.136 41.76 233.856 43.36 237.136 46.56C240.496 49.68 242.176 54.04 242.176 59.64V66.12C242.176 71.72 240.496 76.12 237.136 79.32C233.856 82.44 229.136 84 222.976 84H207.136V19.92ZM246.496 84V19.92H258.736V84H246.496ZM222.856 72.48C225.256 72.48 227.016 72 228.136 71.04C229.336 70.08 229.936 68.56 229.936 66.48V59.28C229.936 57.2 229.336 55.68 228.136 54.72C227.016 53.76 225.256 53.28 222.856 53.28H219.376V72.48H222.856ZM311.479 18.96C315.959 18.96 319.639 20.68 322.519 24.12C325.399 27.56 326.839 32.08 326.839 37.68V66.24C326.839 71.84 325.399 76.36 322.519 79.8C319.639 83.24 315.919 84.96 311.359 84.96C307.599 84.96 304.399 83.64 301.759 81V104.4H289.519V19.92H298.279L299.959 24.12H300.439C303.319 20.68 306.999 18.96 311.479 18.96ZM314.599 38.88C314.599 36.08 314.079 34 313.039 32.64C311.999 31.2 310.559 30.48 308.719 30.48C306.799 30.48 305.199 31.2 303.919 32.64C302.719 34 301.999 35.84 301.759 38.16V65.4C301.999 67.8 302.719 69.76 303.919 71.28C305.119 72.72 306.719 73.44 308.719 73.44C310.559 73.44 311.999 72.76 313.039 71.4C314.079 69.96 314.599 67.84 314.599 65.04V38.88ZM354.109 18.96C357.469 18.96 360.469 19.8 363.109 21.48C365.829 23.08 367.949 25.4 369.469 28.44C371.069 31.4 371.869 34.88 371.869 38.88V84H363.109L361.429 79.44H360.949C358.229 83.12 354.629 84.96 350.149 84.96C345.829 84.96 342.229 83.28 339.349 79.92C336.549 76.48 335.149 72 335.149 66.48V65.04C335.149 59.2 336.909 54.48 340.429 50.88C343.949 47.2 348.429 45.36 353.869 45.36H359.629V39.24C359.629 36.36 359.109 34.2 358.069 32.76C357.109 31.24 355.789 30.48 354.109 30.48C352.429 30.48 351.069 31.24 350.029 32.76C349.069 34.2 348.589 36.36 348.589 39.24V40.56H336.349V38.88C336.349 34.88 337.109 31.4 338.629 28.44C340.229 25.4 342.389 23.08 345.109 21.48C347.829 19.8 350.829 18.96 354.109 18.96ZM353.029 73.44C354.789 73.44 356.269 72.72 357.469 71.28C358.669 69.76 359.389 67.8 359.629 65.4V56.88H353.869C351.869 56.88 350.269 57.6 349.069 59.04C347.949 60.4 347.389 62.4 347.389 65.04V65.4C347.389 67.96 347.869 69.96 348.829 71.4C349.869 72.76 351.269 73.44 353.029 73.44ZM382.764 29.76C382.764 22.4 383.684 16.8 385.524 12.96C387.444 9.04 390.564 6.36 394.884 4.92C396.804 4.27999 399.964 3.71999 404.364 3.24L408.084 2.75999C411.604 2.28 414.804 1.36 417.684 -5.72205e-06V11.52C416.324 12.88 414.124 13.84 411.084 14.4C409.724 14.72 407.684 15.04 404.964 15.36C404.564 15.44 403.764 15.56 402.564 15.72C401.444 15.8 400.484 15.96 399.684 16.2C395.364 17.64 393.204 21.84 393.204 28.8V29.16H393.684C396.164 25.72 399.564 24 403.884 24C406.924 24 409.684 24.88 412.164 26.64C414.724 28.32 416.724 30.68 418.164 33.72C419.684 36.76 420.444 40.16 420.444 43.92V65.04C420.444 68.96 419.604 72.44 417.924 75.48C416.324 78.44 414.084 80.76 411.204 82.44C408.404 84.12 405.204 84.96 401.604 84.96C398.004 84.96 394.764 84.12 391.884 82.44C389.084 80.76 386.844 78.44 385.164 75.48C383.564 72.44 382.764 68.96 382.764 65.04V29.76ZM395.004 64.68C395.004 67.56 395.604 69.76 396.804 71.28C398.004 72.72 399.604 73.44 401.604 73.44C403.604 73.44 405.204 72.72 406.404 71.28C407.604 69.76 408.204 67.56 408.204 64.68V44.28C408.204 41.4 407.604 39.24 406.404 37.8C405.204 36.28 403.644 35.52 401.724 35.52C399.884 35.52 398.364 36.2 397.164 37.56C395.964 38.84 395.244 40.56 395.004 42.72V64.68ZM430.342 38.88C430.342 34.96 431.142 31.52 432.742 28.56C434.422 25.52 436.662 23.16 439.462 21.48C442.342 19.8 445.582 18.96 449.182 18.96C452.782 18.96 455.982 19.8 458.782 21.48C461.662 23.16 463.902 25.52 465.502 28.56C467.182 31.52 468.022 34.96 468.022 38.88V65.04C468.022 68.96 467.182 72.44 465.502 75.48C463.902 78.44 461.662 80.76 458.782 82.44C455.982 84.12 452.782 84.96 449.182 84.96C445.582 84.96 442.342 84.12 439.462 82.44C436.662 80.76 434.422 78.44 432.742 75.48C431.142 72.44 430.342 68.96 430.342 65.04V38.88ZM442.582 64.68C442.582 67.56 443.182 69.76 444.382 71.28C445.582 72.72 447.182 73.44 449.182 73.44C451.182 73.44 452.782 72.72 453.982 71.28C455.182 69.76 455.782 67.56 455.782 64.68V39.24C455.782 36.36 455.182 34.2 453.982 32.76C452.782 31.24 451.182 30.48 449.182 30.48C447.182 30.48 445.582 31.24 444.382 32.76C443.182 34.2 442.582 36.36 442.582 39.24V64.68ZM473.731 19.92H511.171V31.44H498.571V84H486.331V31.44H473.731V19.92ZM534.695 18.96C538.055 18.96 541.055 19.8 543.695 21.48C546.415 23.08 548.535 25.4 550.055 28.44C551.655 31.4 552.455 34.88 552.455 38.88V84H543.695L542.015 79.44H541.535C538.815 83.12 535.215 84.96 530.735 84.96C526.415 84.96 522.815 83.28 519.935 79.92C517.135 76.48 515.735 72 515.735 66.48V65.04C515.735 59.2 517.495 54.48 521.015 50.88C524.535 47.2 529.015 45.36 534.455 45.36H540.215V39.24C540.215 36.36 539.695 34.2 538.655 32.76C537.695 31.24 536.375 30.48 534.695 30.48C533.015 30.48 531.655 31.24 530.615 32.76C529.655 34.2 529.175 36.36 529.175 39.24V40.56H516.935V38.88C516.935 34.88 517.695 31.4 519.215 28.44C520.815 25.4 522.975 23.08 525.695 21.48C528.415 19.8 531.415 18.96 534.695 18.96ZM533.615 73.44C535.375 73.44 536.855 72.72 538.055 71.28C539.255 69.76 539.975 67.8 540.215 65.4V56.88H534.455C532.455 56.88 530.855 57.6 529.655 59.04C528.535 60.4 527.975 62.4 527.975 65.04V65.4C527.975 67.96 528.455 69.96 529.415 71.4C530.455 72.76 531.855 73.44 533.615 73.44ZM563.35 38.88C563.35 32.96 565.07 28.16 568.51 24.48C572.03 20.8 576.47 18.96 581.83 18.96C587.19 18.96 591.59 20.8 595.03 24.48C598.55 28.16 600.31 32.96 600.31 38.88V56.4H575.59V64.68C575.59 67.56 576.15 69.76 577.27 71.28C578.39 72.72 579.87 73.44 581.71 73.44C583.55 73.44 585.03 72.72 586.15 71.28C587.27 69.76 587.83 67.56 587.83 64.68V62.76H600.07V65.04C600.07 68.96 599.27 72.44 597.67 75.48C596.07 78.52 593.87 80.88 591.07 82.56C588.27 84.16 585.15 84.96 581.71 84.96C578.27 84.96 575.15 84.16 572.35 82.56C569.55 80.88 567.35 78.52 565.75 75.48C564.15 72.44 563.35 68.96 563.35 65.04V38.88ZM588.07 44.88V39.24C588.07 36.36 587.51 34.2 586.39 32.76C585.27 31.24 583.75 30.48 581.83 30.48C579.91 30.48 578.39 31.24 577.27 32.76C576.15 34.2 575.59 36.36 575.59 39.24V44.88H588.07ZM659.439 19.92V84H647.199V49.08L637.479 74.52H633.159L623.439 49.08V84H611.199V19.92H622.839L635.319 53.4L647.799 19.92H659.439Z" fill="white" fill-opacity="0.2"/>
</svg>
