<svg width="859" height="105" viewBox="0 0 859 105" fill="none" xmlns="http://www.w3.org/2000/svg">
<path d="M38.6 84H26.36V12.48H12.68V84H0.44V0.959996H38.6V84ZM51.0059 38.88C51.0059 34.96 51.8059 31.52 53.4059 28.56C55.0859 25.52 57.3259 23.16 60.1259 21.48C63.0059 19.8 66.2459 18.96 69.8459 18.96C73.4459 18.96 76.6459 19.8 79.4459 21.48C82.3259 23.16 84.5659 25.52 86.1659 28.56C87.8459 31.52 88.6859 34.96 88.6859 38.88V65.04C88.6859 68.96 87.8459 72.44 86.1659 75.48C84.5659 78.44 82.3259 80.76 79.4459 82.44C76.6459 84.12 73.4459 84.96 69.8459 84.96C66.2459 84.96 63.0059 84.12 60.1259 82.44C57.3259 80.76 55.0859 78.44 53.4059 75.48C51.8059 72.44 51.0059 68.96 51.0059 65.04V38.88ZM63.2459 64.68C63.2459 67.56 63.8459 69.76 65.0459 71.28C66.2459 72.72 67.8459 73.44 69.8459 73.44C71.8459 73.44 73.4459 72.72 74.6459 71.28C75.8459 69.76 76.4459 67.56 76.4459 64.68V39.24C76.4459 36.36 75.8459 34.2 74.6459 32.76C73.4459 31.24 71.8459 30.48 69.8459 30.48C67.8459 30.48 66.2459 31.24 65.0459 32.76C63.8459 34.2 63.2459 36.36 63.2459 39.24V64.68ZM98.2241 19.92H110.464V39.96C110.464 43.16 111.104 45.36 112.384 46.56C113.744 47.76 116.184 48.36 119.704 48.36H121.744V19.92H133.984V84H121.744V59.88H119.704C112.744 59.88 107.424 58.24 103.744 54.96C100.064 51.68 98.2241 46.96 98.2241 40.8V19.92ZM145.342 38.88C145.342 32.96 147.062 28.16 150.502 24.48C154.022 20.8 158.462 18.96 163.822 18.96C169.182 18.96 173.582 20.8 177.022 24.48C180.542 28.16 182.302 32.96 182.302 38.88V56.4H157.582V64.68C157.582 67.56 158.142 69.76 159.262 71.28C160.382 72.72 161.862 73.44 163.702 73.44C165.542 73.44 167.022 72.72 168.142 71.28C169.262 69.76 169.822 67.56 169.822 64.68V62.76H182.062V65.04C182.062 68.96 181.262 72.44 179.662 75.48C178.062 78.52 175.862 80.88 173.062 82.56C170.262 84.16 167.142 84.96 163.702 84.96C160.262 84.96 157.142 84.16 154.342 82.56C151.542 80.88 149.342 78.52 147.742 75.48C146.142 72.44 145.342 68.96 145.342 65.04V38.88ZM170.062 44.88V39.24C170.062 36.36 169.502 34.2 168.382 32.76C167.262 31.24 165.742 30.48 163.822 30.48C161.902 30.48 160.382 31.24 159.262 32.76C158.142 34.2 157.582 36.36 157.582 39.24V44.88H170.062ZM241.431 19.92V84H229.191V49.08L219.471 74.52H215.151L205.431 49.08V84H193.191V19.92H204.831L217.311 53.4L229.791 19.92H241.431ZM289.283 19.92L270.443 104.4H258.083L264.083 79.32L248.963 19.92H262.043L269.843 59.16L276.683 19.92H289.283ZM313.074 19.92H325.314V44.88H337.314V19.92H349.554V84H337.314V56.4H325.314V84H313.074V19.92ZM378.367 18.96C381.727 18.96 384.727 19.8 387.367 21.48C390.087 23.08 392.207 25.4 393.727 28.44C395.327 31.4 396.127 34.88 396.127 38.88V84H387.367L385.687 79.44H385.207C382.487 83.12 378.887 84.96 374.407 84.96C370.087 84.96 366.487 83.28 363.607 79.92C360.807 76.48 359.407 72 359.407 66.48V65.04C359.407 59.2 361.167 54.48 364.687 50.88C368.207 47.2 372.687 45.36 378.127 45.36H383.887V39.24C383.887 36.36 383.367 34.2 382.327 32.76C381.367 31.24 380.047 30.48 378.367 30.48C376.687 30.48 375.327 31.24 374.287 32.76C373.327 34.2 372.847 36.36 372.847 39.24V40.56H360.607V38.88C360.607 34.88 361.367 31.4 362.887 28.44C364.487 25.4 366.647 23.08 369.367 21.48C372.087 19.8 375.087 18.96 378.367 18.96ZM377.287 73.44C379.047 73.44 380.527 72.72 381.727 71.28C382.927 69.76 383.647 67.8 383.887 65.4V56.88H378.127C376.127 56.88 374.527 57.6 373.327 59.04C372.207 60.4 371.647 62.4 371.647 65.04V65.4C371.647 67.96 372.127 69.96 373.087 71.4C374.127 72.76 375.527 73.44 377.287 73.44ZM455.181 19.92V84H442.941V49.08L433.221 74.52H428.901L419.181 49.08V84H406.941V19.92H418.581L431.061 53.4L443.541 19.92H455.181ZM526.019 72.48V95.04H513.779V84H491.579V95.04H479.339V72.48H483.419C484.379 70.72 485.059 68.6 485.459 66.12C486.099 62.76 486.779 56.24 487.499 46.56C488.299 36.88 488.739 28 488.819 19.92H520.619V72.48H526.019ZM508.379 72.48V31.44H499.499C498.379 50.32 497.379 62.56 496.499 68.16C496.339 69.36 496.019 70.8 495.539 72.48H508.379ZM560.732 50.16C566.732 52.08 569.732 56.44 569.732 63.24V66.12C569.732 71.72 568.052 76.12 564.692 79.32C561.412 82.44 556.692 84 550.532 84H533.972V19.92H548.852C554.932 19.92 559.652 21.4 563.012 24.36C566.372 27.24 568.052 31.28 568.052 36.48V39.96C568.052 42.36 567.412 44.44 566.132 46.2C564.852 47.88 563.052 49.2 560.732 50.16ZM546.212 45.36H548.732C551.212 45.36 553.012 44.96 554.132 44.16C555.252 43.28 555.812 41.88 555.812 39.96V36.84C555.812 35 555.252 33.64 554.132 32.76C553.092 31.88 551.412 31.44 549.092 31.44H546.212V45.36ZM557.492 63C557.492 61.08 556.892 59.6 555.692 58.56C554.572 57.44 552.852 56.88 550.532 56.88H546.212V72.48H550.412C552.812 72.48 554.572 72 555.692 71.04C556.892 70.08 557.492 68.56 557.492 66.48V63ZM577.998 38.88C577.998 32.96 579.718 28.16 583.158 24.48C586.678 20.8 591.118 18.96 596.478 18.96C601.838 18.96 606.238 20.8 609.678 24.48C613.198 28.16 614.958 32.96 614.958 38.88V56.4H590.238V64.68C590.238 67.56 590.798 69.76 591.918 71.28C593.038 72.72 594.518 73.44 596.358 73.44C598.198 73.44 599.678 72.72 600.798 71.28C601.918 69.76 602.478 67.56 602.478 64.68V62.76H614.718V65.04C614.718 68.96 613.918 72.44 612.318 75.48C610.718 78.52 608.518 80.88 605.718 82.56C602.918 84.16 599.798 84.96 596.358 84.96C592.918 84.96 589.798 84.16 586.998 82.56C584.198 80.88 581.998 78.52 580.398 75.48C578.798 72.44 577.998 68.96 577.998 65.04V38.88ZM602.718 44.88V39.24C602.718 36.36 602.158 34.2 601.038 32.76C599.918 31.24 598.398 30.48 596.478 30.48C594.558 30.48 593.038 31.24 591.918 32.76C590.798 34.2 590.238 36.36 590.238 39.24V44.88H602.718ZM647.807 18.96C652.287 18.96 655.967 20.68 658.847 24.12C661.727 27.56 663.167 32.08 663.167 37.68V66.24C663.167 71.84 661.727 76.36 658.847 79.8C655.967 83.24 652.247 84.96 647.687 84.96C643.927 84.96 640.727 83.64 638.087 81V104.4H625.847V19.92H634.607L636.287 24.12H636.767C639.647 20.68 643.327 18.96 647.807 18.96ZM650.927 38.88C650.927 36.08 650.407 34 649.367 32.64C648.327 31.2 646.887 30.48 645.047 30.48C643.127 30.48 641.527 31.2 640.247 32.64C639.047 34 638.327 35.84 638.087 38.16V65.4C638.327 67.8 639.047 69.76 640.247 71.28C641.447 72.72 643.047 73.44 645.047 73.44C646.887 73.44 648.327 72.76 649.367 71.4C650.407 69.96 650.927 67.84 650.927 65.04V38.88ZM707.968 19.92V84H695.728V61.44H692.488L684.328 84H670.768L681.448 59.52C675.288 56.72 672.208 51.4 672.208 43.56V37.8C672.208 32.2 673.848 27.84 677.128 24.72C680.488 21.52 685.248 19.92 691.408 19.92H707.968ZM695.728 31.44H691.528C689.128 31.44 687.328 31.92 686.128 32.88C685.008 33.84 684.448 35.36 684.448 37.44V43.92C684.448 46 685.008 47.52 686.128 48.48C687.328 49.44 689.128 49.92 691.528 49.92H695.728V31.44ZM720.886 19.92H733.126V44.88H738.646V38.88C738.646 32.88 740.246 28.08 743.446 24.48C746.726 20.8 751.086 18.96 756.526 18.96C761.966 18.96 766.286 20.8 769.486 24.48C772.766 28.08 774.406 32.88 774.406 38.88V65.04C774.406 71.04 772.766 75.88 769.486 79.56C766.286 83.16 761.966 84.96 756.526 84.96C751.086 84.96 746.726 83.16 743.446 79.56C740.246 75.88 738.646 71.04 738.646 65.04V56.4H733.126V84H720.886V19.92ZM750.886 64.68C750.886 67.48 751.366 69.64 752.326 71.16C753.286 72.68 754.686 73.44 756.526 73.44C758.366 73.44 759.766 72.68 760.726 71.16C761.686 69.64 762.166 67.48 762.166 64.68V39.24C762.166 36.44 761.686 34.28 760.726 32.76C759.766 31.24 758.366 30.48 756.526 30.48C754.686 30.48 753.286 31.24 752.326 32.76C751.366 34.28 750.886 36.44 750.886 39.24V64.68ZM780.059 19.92H817.499V31.44H804.899V84H792.659V31.44H780.059V19.92ZM833.823 56.64C833.823 53.92 834.143 51.4 834.783 49.08C835.503 46.68 836.223 44.76 836.943 43.32C837.663 41.88 838.983 39.44 840.903 36C842.983 32.24 844.383 29.24 845.103 27C845.903 24.76 846.303 22.52 846.303 20.28C846.303 17.32 845.783 15.08 844.743 13.56C843.703 11.96 842.183 11.16 840.183 11.16C838.103 11.16 836.503 12.12 835.383 14.04C834.343 15.96 833.823 18.72 833.823 22.32V25.68H821.943V21.96C821.943 15.24 823.503 9.92 826.623 6C829.823 1.99999 834.343 -5.72205e-06 840.183 -5.72205e-06C845.703 -5.72205e-06 850.063 1.83999 853.263 5.51999C856.543 9.2 858.183 14.08 858.183 20.16C858.183 24.08 857.583 27.52 856.383 30.48C855.183 33.36 853.383 36.88 850.983 41.04C849.143 44.32 847.783 47.08 846.903 49.32C846.103 51.56 845.703 54 845.703 56.64V60.12H833.823V56.64ZM832.503 68.88H846.903V84H832.503V68.88Z" fill="white" fill-opacity="0.2"/>
</svg>
