<svg width="758" height="105" viewBox="0 0 758 105" fill="none" xmlns="http://www.w3.org/2000/svg">
<path d="M0.44 0.959996H12.68V34.92H27.08V0.959996H39.32V84H27.08V46.44H12.68V84H0.44V0.959996ZM69.1091 18.96C72.4691 18.96 75.4691 19.8 78.1091 21.48C80.8291 23.08 82.9491 25.4 84.4691 28.44C86.0691 31.4 86.8691 34.88 86.8691 38.88V84H78.1091L76.4291 79.44H75.9491C73.2291 83.12 69.6291 84.96 65.1491 84.96C60.8291 84.96 57.2291 83.28 54.3491 79.92C51.5491 76.48 50.1491 72 50.1491 66.48V65.04C50.1491 59.2 51.9091 54.48 55.4291 50.88C58.9491 47.2 63.4291 45.36 68.8691 45.36H74.6291V39.24C74.6291 36.36 74.1091 34.2 73.0691 32.76C72.1091 31.24 70.7891 30.48 69.1091 30.48C67.4291 30.48 66.0691 31.24 65.0291 32.76C64.0691 34.2 63.5891 36.36 63.5891 39.24V40.56H51.3491V38.88C51.3491 34.88 52.1091 31.4 53.6291 28.44C55.2291 25.4 57.3891 23.08 60.1091 21.48C62.8291 19.8 65.8291 18.96 69.1091 18.96ZM68.0291 73.44C69.7891 73.44 71.2691 72.72 72.4691 71.28C73.6691 69.76 74.3891 67.8 74.6291 65.4V56.88H68.8691C66.8691 56.88 65.2691 57.6 64.0691 59.04C62.9491 60.4 62.3891 62.4 62.3891 65.04V65.4C62.3891 67.96 62.8691 69.96 63.8291 71.4C64.8691 72.76 66.2691 73.44 68.0291 73.44ZM97.6831 19.92H109.923V72.48H118.683V19.92H130.923V72.48H139.683V19.92H151.923V84H97.6831V19.92ZM202.152 19.92V84H189.912V49.08L175.992 84H164.832V19.92H177.072V55.08L190.992 19.92H202.152ZM232.918 19.92H269.038V84H256.798V31.44H245.158V84H232.918V19.92ZM303.979 18.96C308.459 18.96 312.139 20.68 315.019 24.12C317.899 27.56 319.339 32.08 319.339 37.68V66.24C319.339 71.84 317.899 76.36 315.019 79.8C312.139 83.24 308.419 84.96 303.859 84.96C300.099 84.96 296.899 83.64 294.259 81V104.4H282.019V19.92H290.779L292.459 24.12H292.939C295.819 20.68 299.499 18.96 303.979 18.96ZM307.099 38.88C307.099 36.08 306.579 34 305.539 32.64C304.499 31.2 303.059 30.48 301.219 30.48C299.299 30.48 297.699 31.2 296.419 32.64C295.219 34 294.499 35.84 294.259 38.16V65.4C294.499 67.8 295.219 69.76 296.419 71.28C297.619 72.72 299.219 73.44 301.219 73.44C303.059 73.44 304.499 72.76 305.539 71.4C306.579 69.96 307.099 67.84 307.099 65.04V38.88ZM329.209 38.88C329.209 32.96 330.929 28.16 334.369 24.48C337.889 20.8 342.329 18.96 347.689 18.96C353.049 18.96 357.449 20.8 360.889 24.48C364.409 28.16 366.169 32.96 366.169 38.88V56.4H341.449V64.68C341.449 67.56 342.009 69.76 343.129 71.28C344.249 72.72 345.729 73.44 347.569 73.44C349.409 73.44 350.889 72.72 352.009 71.28C353.129 69.76 353.689 67.56 353.689 64.68V62.76H365.929V65.04C365.929 68.96 365.129 72.44 363.529 75.48C361.929 78.52 359.729 80.88 356.929 82.56C354.129 84.16 351.009 84.96 347.569 84.96C344.129 84.96 341.009 84.16 338.209 82.56C335.409 80.88 333.209 78.52 331.609 75.48C330.009 72.44 329.209 68.96 329.209 65.04V38.88ZM353.929 44.88V39.24C353.929 36.36 353.369 34.2 352.249 32.76C351.129 31.24 349.609 30.48 347.689 30.48C345.769 30.48 344.249 31.24 343.129 32.76C342.009 34.2 341.449 36.36 341.449 39.24V44.88H353.929ZM417.738 72.48V95.04H405.498V84H383.298V95.04H371.058V72.48H375.138C376.098 70.72 376.778 68.6 377.178 66.12C377.818 62.76 378.498 56.24 379.218 46.56C380.018 36.88 380.458 28 380.538 19.92H412.338V72.48H417.738ZM400.098 72.48V31.44H391.218C390.098 50.32 389.098 62.56 388.218 68.16C388.058 69.36 387.738 70.8 387.258 72.48H400.098ZM461.197 84H448.957V31.44H440.917C439.797 50.32 438.797 62.56 437.917 68.16C437.037 73.6 435.237 77.6 432.517 80.16C429.797 82.72 425.757 84 420.397 84V72.48C422.397 72.48 423.877 72 424.837 71.04C425.797 70.08 426.477 68.44 426.877 66.12C427.517 62.76 428.197 56.24 428.917 46.56C429.717 36.88 430.157 28 430.237 19.92H461.197V84ZM472.647 38.88C472.647 34.96 473.447 31.52 475.047 28.56C476.727 25.52 478.967 23.16 481.767 21.48C484.647 19.8 487.887 18.96 491.487 18.96C495.087 18.96 498.287 19.8 501.087 21.48C503.967 23.16 506.207 25.52 507.807 28.56C509.487 31.52 510.327 34.96 510.327 38.88V65.04C510.327 68.96 509.487 72.44 507.807 75.48C506.207 78.44 503.967 80.76 501.087 82.44C498.287 84.12 495.087 84.96 491.487 84.96C487.887 84.96 484.647 84.12 481.767 82.44C478.967 80.76 476.727 78.44 475.047 75.48C473.447 72.44 472.647 68.96 472.647 65.04V38.88ZM484.887 64.68C484.887 67.56 485.487 69.76 486.687 71.28C487.887 72.72 489.487 73.44 491.487 73.44C493.487 73.44 495.087 72.72 496.287 71.28C497.487 69.76 498.087 67.56 498.087 64.68V39.24C498.087 36.36 497.487 34.2 496.287 32.76C495.087 31.24 493.487 30.48 491.487 30.48C489.487 30.48 487.887 31.24 486.687 32.76C485.487 34.2 484.887 36.36 484.887 39.24V64.68ZM550.15 56.64H549.31V84H537.07V56.64H536.23L527.23 84H513.67L526.75 50.64L515.35 19.92H528.67L536.35 45.12H537.07V19.92H549.31V45.12H550.03L557.71 19.92H571.03L559.63 50.64L572.71 84H559.15L550.15 56.64ZM576.006 38.88C576.006 32.96 577.726 28.16 581.166 24.48C584.686 20.8 589.126 18.96 594.486 18.96C599.846 18.96 604.246 20.8 607.686 24.48C611.206 28.16 612.966 32.96 612.966 38.88V56.4H588.246V64.68C588.246 67.56 588.806 69.76 589.926 71.28C591.046 72.72 592.526 73.44 594.366 73.44C596.206 73.44 597.686 72.72 598.806 71.28C599.926 69.76 600.486 67.56 600.486 64.68V62.76H612.726V65.04C612.726 68.96 611.926 72.44 610.326 75.48C608.726 78.52 606.526 80.88 603.726 82.56C600.926 84.16 597.806 84.96 594.366 84.96C590.926 84.96 587.806 84.16 585.006 82.56C582.206 80.88 580.006 78.52 578.406 75.48C576.806 72.44 576.006 68.96 576.006 65.04V38.88ZM600.726 44.88V39.24C600.726 36.36 600.166 34.2 599.046 32.76C597.926 31.24 596.406 30.48 594.486 30.48C592.566 30.48 591.046 31.24 589.926 32.76C588.806 34.2 588.246 36.36 588.246 39.24V44.88H600.726ZM623.855 19.92H636.095V44.88H648.095V19.92H660.335V84H648.095V56.4H636.095V84H623.855V19.92ZM710.628 19.92V84H698.388V49.08L684.468 84H673.308V19.92H685.548V55.08L699.468 19.92H710.628ZM757.422 19.92V84H745.182V61.44H741.942L733.782 84H720.222L730.902 59.52C724.742 56.72 721.662 51.4 721.662 43.56V37.8C721.662 32.2 723.302 27.84 726.582 24.72C729.942 21.52 734.702 19.92 740.862 19.92H757.422ZM745.182 31.44H740.982C738.582 31.44 736.782 31.92 735.582 32.88C734.462 33.84 733.902 35.36 733.902 37.44V43.92C733.902 46 734.462 47.52 735.582 48.48C736.782 49.44 738.582 49.92 740.982 49.92H745.182V31.44Z" fill="white" fill-opacity="0.2"/>
</svg>
