<svg width="88" height="409" viewBox="0 0 88 409" fill="none" xmlns="http://www.w3.org/2000/svg">
<g filter="url(#filter0_d_104_4)">
<path d="M4.8 400.7L4.8 367.5H14.4V379H74V389.2H14.4V400.7H4.8ZM22.8 362.93C19.2 362.93 15.9667 362.23 13.1 360.83C10.2333 359.363 8 357.33 6.39999 354.73C4.79999 352.13 4 349.163 4 345.83C4 342.496 4.79999 339.53 6.39999 336.93C8 334.33 10.2333 332.33 13.1 330.93C15.9667 329.463 19.2 328.73 22.8 328.73H56C59.6 328.73 62.8333 329.463 65.7 330.93C68.5667 332.33 70.8 334.33 72.4 336.93C74 339.53 74.8 342.496 74.8 345.83C74.8 349.163 74 352.13 72.4 354.73C70.8 357.33 68.5667 359.363 65.7 360.83C62.8333 362.23 59.6 362.93 56 362.93H22.8ZM55.7 352.73C58.6333 352.73 60.9667 352.13 62.7 350.93C64.3667 349.663 65.2 347.963 65.2 345.83C65.2 343.696 64.3667 342.03 62.7 340.83C60.9667 339.563 58.6333 338.93 55.7 338.93H23.1C20.1667 338.93 17.8667 339.563 16.2 340.83C14.4667 342.03 13.6 343.696 13.6 345.83C13.6 347.963 14.4667 349.663 16.2 350.93C17.8667 352.13 20.1667 352.73 23.1 352.73H55.7ZM74 286.266V296.466H14.4V307.866H74V318.066H4.8L4.8 286.266H74ZM74 227.184V237.384H14.4V248.784H74V258.984H4.8L4.8 227.184H74ZM4.8 214.745V200.645C4.8 197.445 5.53333 194.645 7 192.245C8.4 189.779 10.3333 187.879 12.8 186.545C15.2667 185.212 18 184.545 21 184.545H32.9C35.9 184.545 38.6333 185.212 41.1 186.545C43.5667 187.879 45.5333 189.779 47 192.245C48.4 194.645 49.1 197.445 49.1 200.645V204.545H74V214.745H4.8ZM39.5 200.945C39.5 198.945 38.9 197.412 37.7 196.345C36.4333 195.279 34.7333 194.745 32.6 194.745H21.3C19.1667 194.745 17.5 195.279 16.3 196.345C15.0333 197.412 14.4 198.945 14.4 200.945V204.545H39.5V200.945ZM22.8 176.406C19.2 176.406 15.9667 175.706 13.1 174.306C10.2333 172.84 8 170.806 6.39999 168.206C4.79999 165.606 4 162.64 4 159.306C4 155.973 4.79999 153.006 6.39999 150.406C8 147.806 10.2333 145.806 13.1 144.406C15.9667 142.94 19.2 142.206 22.8 142.206H56C59.6 142.206 62.8333 142.94 65.7 144.406C68.5667 145.806 70.8 147.806 72.4 150.406C74 153.006 74.8 155.973 74.8 159.306C74.8 162.64 74 165.606 72.4 168.206C70.8 170.806 68.5667 172.84 65.7 174.306C62.8333 175.706 59.6 176.406 56 176.406H22.8ZM55.7 166.206C58.6333 166.206 60.9667 165.606 62.7 164.406C64.3667 163.14 65.2 161.44 65.2 159.306C65.2 157.173 64.3667 155.506 62.7 154.306C60.9667 153.04 58.6333 152.406 55.7 152.406H23.1C20.1667 152.406 17.8667 153.04 16.2 154.306C14.4667 155.506 13.6 157.173 13.6 159.306C13.6 161.44 14.4667 163.14 16.2 164.406C17.8667 165.606 20.1667 166.206 23.1 166.206H55.7ZM64.4 95.9164H83.9V106.116H74V128.616H83.9V138.816H64.4V134.816C62.8667 133.75 60.2667 132.95 56.6 132.416C50.7333 131.55 42.7333 130.75 32.6 130.016C22.4667 129.283 13.2 128.883 4.8 128.816V101.016H64.4V95.9164ZM64.4 111.216H14.4L14.4 119.516C22.8 119.916 31.1333 120.45 39.4 121.116C47.6667 121.783 54 122.416 58.4 123.016C60.4667 123.283 62.4667 123.816 64.4 124.616V111.216ZM4.8 79.5898V70.5898L74 56.1898V66.8898L58.5 69.5898V80.5898L74 83.2898V93.9898L4.8 79.5898ZM48.9 71.1898L26.3 75.0898L48.9 78.9898V71.1898ZM74 11.6016L41.9 20.9016V23.1016H74V33.3016H41.9V35.5016L74 44.8016L74 56.1016L37 44.2016L4.8 54.0016V43.1016L32.3 35.7016V33.3016H4.8L4.8 23.1016H32.3V20.7016L4.8 13.3016V2.40156L37 12.2016L74 0.30156V11.6016Z" fill="#464646" fill-opacity="0.15" shape-rendering="crispEdges"/>
</g>
<defs>
<filter id="filter0_d_104_4" x="0" y="0.301575" width="87.8999" height="408.398" filterUnits="userSpaceOnUse" color-interpolation-filters="sRGB">
<feFlood flood-opacity="0" result="BackgroundImageFix"/>
<feColorMatrix in="SourceAlpha" type="matrix" values="0 0 0 0 0 0 0 0 0 0 0 0 0 0 0 0 0 0 127 0" result="hardAlpha"/>
<feOffset dy="4"/>
<feGaussianBlur stdDeviation="2"/>
<feComposite in2="hardAlpha" operator="out"/>
<feColorMatrix type="matrix" values="0 0 0 0 0 0 0 0 0 0 0 0 0 0 0 0 0 0 0.25 0"/>
<feBlend mode="normal" in2="BackgroundImageFix" result="effect1_dropShadow_104_4"/>
<feBlend mode="normal" in="SourceGraphic" in2="effect1_dropShadow_104_4" result="shape"/>
</filter>
</defs>
</svg>
